<svg xmlns="http://www.w3.org/2000/svg" viewBox="0 0 249.34 35.19"><defs><style>.cls-1{fill:#fff;}</style></defs><title>snow_zyf_logo</title><g id="图层_2" data-name="图层 2"><g id="snow_zyf_logo"><path class="cls-1" d="M10.34,19.55l-.85,1.12h4.08L15,19.13,17.51,21c.28.28.33.47.14.57l-1.13.7A34.37,34.37,0,0,1,13,27.14a13.11,13.11,0,0,1,3.37,1.27c.38.47.43,1.45.14,2.95-.09.47-.28.75-.56.84s-.56-.05-.84-.42a13.64,13.64,0,0,0-3.8-3A37,37,0,0,1,.49,34.59c-.19.19-.33.24-.42.14s-.09-.28,0-.56a23.4,23.4,0,0,0,9.42-6.33A21.05,21.05,0,0,0,4.15,26q1.13-2.4,2-4.5a21.47,21.47,0,0,0-3.8.28l-1.12-1H6.4c.47-1.4.89-2.81,1.26-4.22L11,18.42l.28.14c0,.1-.09.19-.28.28ZM16,1.83l2.25,1.69c.19.09.14.23-.14.42L12.45,8l3.65-.14,1.69-1.83L20,8c.19.28.14.42-.14.42l-7.74.14v6.05a5.26,5.26,0,0,1-2.39,2.81c-.37.09-.61,0-.7-.28l.28-5.77A50.4,50.4,0,0,1,.63,17.3c-.28,0-.37-.14-.28-.42A28.48,28.48,0,0,0,8.09,8.72H6.54A19.33,19.33,0,0,0,3.31,9a2.55,2.55,0,0,1-.57.14l-1.12-1L9.35,8V4.36L9.21.7C9.12.24,9.16.09,9.35.28l3,1c.28.09.32.23.14.42l-.29,1.12V7.73a41.82,41.82,0,0,0,3.52-5.48A1.52,1.52,0,0,1,16,1.83ZM3.87,2.67c-.1-.28,0-.37.28-.28a1.58,1.58,0,0,1,.56.28,8.5,8.5,0,0,1,3.1,1.69C8,4.92,7.71,5.63,7,6.47Q6,7,5.7,6.47A8.61,8.61,0,0,0,3.87,2.67ZM5.7,25.59,8.09,26l2.39.42a32,32,0,0,0,2.95-5.06l-4.5.14ZM13,9.84a13.59,13.59,0,0,1,5.2,1.83q.42.71-.42,2.67c-.56.57-1,.52-1.41-.14a10.72,10.72,0,0,0-3.51-4.07C12.68,9.94,12.73,9.84,13,9.84ZM15.4,34.31c-.38-.09-.42-.28-.14-.56a28.75,28.75,0,0,0,7.45-8.58,36.72,36.72,0,0,1-2.25-10.54,2.9,2.9,0,0,0-.56,1c-.38.56-1,1.41-1.83,2.53a.38.38,0,0,1-.28.14c-.09,0-.14-.09-.14-.28A80.09,80.09,0,0,0,24,.42c0-.18.09-.23.28-.14l3.23,2.39c.28.28.28.47,0,.56a7.5,7.5,0,0,0-1.4,1.55q-1.41,3-3.38,6.19l6.61-.42,2-2.11,2.53,2.39c.19.09.14.23-.14.42l-6.47.28,2.39,1.55c.28.19.24.61-.14,1.26a34.25,34.25,0,0,1-3.94,10.27q2.82,4.08,9,6.75c.19.09.29.19.29.28s-.1.28-.29.28c-1.5-.09-3.18.66-5.06,2.25a25.17,25.17,0,0,1-5.76-7A32.92,32.92,0,0,1,15.4,34.31Zm6.89-22.5a6.15,6.15,0,0,1-.56.85,13.83,13.83,0,0,0-.85,1.4,24.65,24.65,0,0,0,3.1,8.3,43.56,43.56,0,0,0,2.39-10.83Z"/><path class="cls-1" d="M39.59,13.64c-.94,0-1.46-.84-1.55-2.53A9,9,0,0,0,42,4.64a1.33,1.33,0,0,1,.28-.42c.09,0,.19.09.28.28a4,4,0,0,0,.14.84v.57l9-.14L51.54.7c0-.28.09-.37.28-.28l3.66,1.13a.44.44,0,0,1,.28.14L55.62,2a2.45,2.45,0,0,0-.42,1.69v2l8.57-.15L65.6,3.94,69,7c.18.38.09.61-.28.7a18,18,0,0,0-5.07,1.83q-.29.15-.42,0a.18.18,0,0,1,0-.28l1-3.09-21.52.56Q42.82,11.67,39.59,13.64Zm12.23,1.27,2.25,1,3.52-4.78L49,11.39a16,16,0,0,0-3.8.56L44,10.69,58,10.27l1.55-1.41,2.95,2.67a.44.44,0,0,1,.14.28.56.56,0,0,1-.42.14q-1.83.29-7.6,4.08l1,.42c.18.1.18.24,0,.43A2.09,2.09,0,0,0,55.06,18v2.25l8.29-.14,2.39-2.39,2.67,2.67c.19.28.15.42-.14.42l-13.21.42v3.1l.14,4.22q0,3.93-4.79,6.18a1,1,0,0,1-.42.15.87.87,0,0,1-.14-.57,2.66,2.66,0,0,0-1.69-3c-.18-.28-.14-.47.15-.56q4.06.42,3.51-1.27l-.14-7.73v-.57l-8,.29a24.63,24.63,0,0,0-3.79.42L38.6,20.67l13.08-.28c-.09-2.34-.14-4.12-.14-5.34C51.54,14.86,51.63,14.81,51.82,14.91Z"/><path class="cls-1" d="M83.46,6.75,86.27,8.3c.29.09.33.23.14.42l-1,1.12A43.78,43.78,0,0,1,82.2,22.92a18,18,0,0,1,2.53,2,4,4,0,0,1-.28,3.8c-.66.47-1.13.37-1.41-.28a13.12,13.12,0,0,0-2-3.38Q79,28.82,72.49,34.59a.27.27,0,0,1-.42-.14c-.09-.09,0-.19.14-.28a32.86,32.86,0,0,0,7.31-10.69,18.27,18.27,0,0,0-4.07-2.67L77,9.56a16.42,16.42,0,0,0-3.09.28l-1-1.12H77l.57-3.8A44.78,44.78,0,0,0,78,0l3.37,1.27a.38.38,0,0,1,.28.14l-.14.28-.56.7L79.66,8.58l2.54-.14ZM77.13,20.53a22,22,0,0,1,3,1.27A53.24,53.24,0,0,0,82.34,9.28l-3,.14Zm12.38.28a15.86,15.86,0,0,0-4.22.57l-1-1.13,8.43-.14V17.3c-.09-.28,0-.42.14-.42l2.68.84c.28.09.37.33.28.7V20l6.47-.14,2-2,2.25,2.25c.1.09,0,.23-.14.42L97,20.67q.42,5.49,10,9c.18,0,.23.1.14.28s-.1.19-.28.28c-1-.18-2.35.47-3.94,2q-5.49-3.8-6.33-11.53h-.7l-.28,9.42a4.78,4.78,0,0,1-3.1,4.64c-.28.1-.42.05-.42-.14a2.52,2.52,0,0,0-1-2.53c-.1,0-.15-.05-.15-.14s0-.28.15-.28c1.31.19,1.92-.14,1.82-1V24.05a52,52,0,0,1-12.93,9c-.29.09-.33,0-.14-.28q6.47-3.66,12.09-12ZM97.24,0l3.24,1.69q.27.14,0,.42l-.42,1-.15,2.25.85-.14,1.83-1.68,2.11,2c.18.19.18.29,0,.29l-4.79.14v6.61a6.05,6.05,0,0,1-1.54,4.78c-.28.37-.52.51-.71.42s-.32-.19-.42-.56a1.15,1.15,0,0,0-.14-.43,9.32,9.32,0,0,0-.7-1.4l-4.92.14a7.15,7.15,0,0,1-1.69,2.81c-.19.28-.38.42-.56.42s-.28-.14-.28-.42V6.19a14.61,14.61,0,0,0-2.54.28,1.07,1.07,0,0,1-.42.14l-1-1H89V5.2c0-2.15,0-3.7-.14-4.64,0-.18.09-.23.28-.14l3,1.41c.28.19.33.28.14.28l-.7,1.12V5.48l5.62-.14v-1A34.85,34.85,0,0,0,97,.14C97,.05,97.05,0,97.24,0ZM96,9.7c.28.19.28.43,0,.71l-4.5.14v4.22L97,14.63l.14-8.58-5.62.14V9.84Z"/><path class="cls-1" d="M108.21,19.41q-.28.14-.42,0a.62.62,0,0,1,.14-.43A54.12,54.12,0,0,0,119.74.28l3.1,2,.28.14c0,.1-.1.19-.28.28l-.43.56a59.16,59.16,0,0,1-4.64,6.33l.29,20.82A8.24,8.24,0,0,1,116,34.59a1.41,1.41,0,0,1-.71.29c-.09,0-.14-.15-.14-.43l.14-9.7.14-12.23A79.86,79.86,0,0,1,108.21,19.41ZM128.46.14,132,1.69c.09,0,.14.09.14.28l-.71,1.12-.14,5.49,4.93-.14L138,6.75l2.25,2c.19.28.14.42-.14.42l-7.59.14q1.83,9.71,10.27,17.16a.42.42,0,0,1,.14.28c0,.09-.1.14-.29.14a7.26,7.26,0,0,0-4.35,1.55Q133.24,22.5,132,9.28h-.71L131,24.47h.71l1.4-1.55,2.11,1.83c.09.19,0,.28-.14.28l-4.08.14.14,5.91a7.18,7.18,0,0,1-2.25,3.8c-.56.46-.89.42-1-.15l.28-9.56-1.12.14h-.85a16.61,16.61,0,0,1-1.69.14l-.84-.84,4.5-.14V15.75a89.12,89.12,0,0,1-9.7,12.94c-.47.28-.57.19-.28-.28q4.92-7.17,9.28-19.13h-1.69a22.39,22.39,0,0,0-3.23.28,3.55,3.55,0,0,1-.85.14l-1.12-1,7.73-.14V5.06c0-2.15,0-3.75-.14-4.78C128.18.09,128.27.05,128.46.14Z"/><path class="cls-1" d="M152.51,6.33c-1.32.09-2.58.23-3.8.42l-1.12-1.12,22.07-.43L171.91,3l2.82,2.53c.18.19.18.33,0,.43l-11.53.14-.29,24.47,9.15-.29,2.39-2.53,3.09,3c.19.09.19.18,0,.28l-28,.84c-1.13.09-2.3.23-3.52.42h-.28l-1.13-1.12,14.63-.42.28-24.47Z"/><path class="cls-1" d="M180.21,19.41q-.28.14-.42,0a.62.62,0,0,1,.14-.43A54.12,54.12,0,0,0,191.74.28l3.1,2,.28.14c0,.1-.1.19-.28.28l-.43.56a60.59,60.59,0,0,1-4.64,6.33l.29,20.82A8.24,8.24,0,0,1,188,34.59a1.41,1.41,0,0,1-.71.29c-.09,0-.14-.15-.14-.43l.14-9.7.14-12.23A79.86,79.86,0,0,1,180.21,19.41ZM199.34.56l2.95,2q.28.15,0,.42c.09,0,.09,0,0,.14l-.84.85c-1,1.22-2.11,2.48-3.24,3.79l9.85-.42,1.82-2.11,2.68,2.25c.18.1.18.19,0,.28l-10.83.57v6.33l5.48-.29L209,12.52l2.25,2c.19.1.14.24-.14.43l-9.42.42.14,6.75,6.33-.28,1.82-2,2.25,2.11c.19.09.14.23-.14.42l-10.26.28v7.59a8.08,8.08,0,0,1-2.39,4.22c-.57.38-.9.33-1-.14l.28-9.7.29-16.17-1.69.14a55.12,55.12,0,0,1-5.06,4.5c-.29.19-.38.09-.29-.28a31.66,31.66,0,0,0,7-12.1C199.06.33,199.15.28,199.34.56Z"/><path class="cls-1" d="M227.46,10.27a14.07,14.07,0,0,0-3.8.56L222.54,9.7l17-.56,1.82-1.83,2.39,2.11q.28.28,0,.42c0-.09,0-.09-.14,0l-11.53.29L234.49,12c.28.28.24.47-.14.57l-1.26.56c-3,2-5.3,3.42-6.89,4.36a6.36,6.36,0,0,0,1.12-.14L239.56,17a19.7,19.7,0,0,0-2.82-3.52c0-.19.09-.23.28-.14a1.65,1.65,0,0,0,.57.28c3.65,1.6,5.81,3,6.47,4.22.28.94-.33,1.92-1.83,2.95-.38.28-.66.19-.85-.28q-.13-.29-.42-.84a9.6,9.6,0,0,0-1.12-2.11L231.4,19l3.94,1c.18.09.28.19.28.28a.45.45,0,0,1-.28.42,4.52,4.52,0,0,0-.71,2.67v2l5.49-.14L242,23.06l2.53,2.25c.18.28.14.42-.14.42l-9.71.29-.14,6,10.13-.28,2-2,2.53,2.25a.28.28,0,0,1-.14.42l-27.14.57a15.43,15.43,0,0,0-3.8.56l-1.13-1.27,14.35-.28v-5.9l-4.92.14c-1.32.09-2.58.23-3.8.42l-1.13-1.13,9.85-.28V24.05c0-2.53,0-4.17-.14-4.92l-3.24.42-1.4.42c-1.41.37-2.35.66-2.82.84s-.61.14-.7-.14l-1.4-3c0-.28.09-.37.28-.28h3.23a50.78,50.78,0,0,0,6.05-7.17ZM244.34,4.5l1.4-1.41,3.52,2.68c.19.37,0,.65-.42.84A8.46,8.46,0,0,0,244.2,8.3c-.29,0-.38-.09-.29-.28l.57-3-21.38.71a9.28,9.28,0,0,1-4.22,5.48c-.37.19-.65.14-.84-.14-.28-1.22-.24-2,.14-2.39a5.88,5.88,0,0,0,2.67-4.64c0-.37.23-.47.71-.28A5.9,5.9,0,0,1,223,5.06l8.3-.28L231.4.14l4.08,1q.27,0,0,.42l-.42.84-.15,2.25Z"/></g></g></svg>