<svg xmlns="http://www.w3.org/2000/svg" viewBox="0 0 319.33 32.2"><defs><style>.cls-1{fill:#fff;}</style></defs><title>snow_zyf_footer2</title><g id="图层_2" data-name="图层 2"><g id="Hello"><path class="cls-1" d="M5.63,24.47Q8.44,24.76,9,14.06a4.52,4.52,0,0,1-3.8,2.25Q.15,16,0,8.58.14.42,6.05.14q5.76.71,6.18,12,0,13.65-6.75,13.64Q.84,25.46.42,21.8c.09-1.6.75-2.44,2-2.53q3.09.42,1.69,3.79C4.36,24,4.87,24.47,5.63,24.47Zm.42-23.2c-1.79.18-2.72,2.58-2.82,7.17q0,6,2.82,6.19T9,8.16C8.91,3.75,7.92,1.45,6.05,1.27Z"/><path class="cls-1" d="M21.62.56h9.84v3.8H22.6l-.56,8a5.46,5.46,0,0,1,4.36-2.25q5.63.55,6.05,7.45-.15,7.74-6.61,8-5.49-.14-5.77-4.36c.09-1.59.75-2.43,2-2.53q3.09.71,1.41,3.8a2.48,2.48,0,0,0,2.39,2c2.15-.19,3.28-2.44,3.37-6.75,0-4.13-1.26-6.19-3.8-6.19q-2.25,0-3.65,3.52l-1-.28Z"/><path class="cls-1" d="M43.94,12.94V11.67q4.92-.55,4.92-5.76,0-4.65-2.67-4.78A2.39,2.39,0,0,0,43.8,3.52c.93,2.15.42,3.42-1.55,3.79-1.22,0-1.83-.79-1.83-2.39Q40.84.29,46.33,0c3.75.19,5.71,2.2,5.9,6.05,0,2.9-1.82,5-5.48,6.18q6,1.41,5.77,6.75-.15,6.61-6.33,6.75C42.06,25.45,40,23.91,40,21.09c.09-1.68.79-2.57,2.11-2.67q3.09.7,1.55,3.94c.46,1.5,1.31,2.25,2.53,2.25,2-.19,3-2.06,3.09-5.63C49.37,15.05,47.59,13,43.94,12.94Z"/><path class="cls-1" d="M61.33,8.58l-.84-.14.7-7.88H72.58V3a43.17,43.17,0,0,0-5.2,20.39c0,1.6-.66,2.39-2,2.39s-1.83-.65-1.83-2q0-5.91,7-19.41H64Q62.18,4.07,61.33,8.58Z"/><path class="cls-1" d="M84.22,12.94V11.67q4.92-.55,4.92-5.76,0-4.65-2.67-4.78a2.39,2.39,0,0,0-2.39,2.39c.93,2.15.42,3.42-1.55,3.79-1.22,0-1.83-.79-1.83-2.39Q81.12.29,86.61,0c3.75.19,5.72,2.2,5.9,6.05,0,2.9-1.82,5-5.48,6.18q6,1.41,5.76,6.75-.14,6.61-6.32,6.75c-4.13-.28-6.19-1.82-6.19-4.64.09-1.68.8-2.57,2.11-2.67q3.09.7,1.55,3.94c.46,1.5,1.31,2.25,2.53,2.25,2-.19,3-2.06,3.09-5.63C89.65,15.05,87.87,13,84.22,12.94Z"/><path class="cls-1" d="M112.44,17l1,.28L112.87,25h-12.1a16.64,16.64,0,0,1,5.63-12,8.79,8.79,0,0,0,3.37-6.75q0-5.2-3-5.2c-1.41.18-2.25,1.12-2.53,2.81C105.5,6.1,105.08,7.45,103,8c-1.31-.1-2-.94-2-2.54Q101.47.29,107,0q5.91.29,6.19,6.33.13,5.21-5.35,8.44a9.42,9.42,0,0,0-5.06,6.46h7.17C111.13,21.52,112,20.11,112.44,17Z"/><path class="cls-1" d="M133.22,25H125.9v-1c1.41.09,2.06-.85,2-2.82V18.56H120.7V17l8-16.46h2.39V17h2.39v1.54h-2.39v2.53c-.1,2.16.61,3.15,2.11,3Zm-5.35-8V5.34L122.11,17Z"/><path class="cls-1" d="M142.46.56h9.84v3.8h-8.86l-.56,8a5.46,5.46,0,0,1,4.36-2.25q5.63.55,6,7.45-.15,7.74-6.61,8-5.49-.14-5.77-4.36c.09-1.59.75-2.43,2-2.53q3.09.71,1.41,3.8a2.48,2.48,0,0,0,2.39,2c2.15-.19,3.28-2.44,3.37-6.75q0-6.19-3.79-6.19c-1.51,0-2.72,1.17-3.66,3.52l-1-.28Z"/><path class="cls-1" d="M166.75,24.47q2.81.29,3.37-10.41a4.52,4.52,0,0,1-3.79,2.25q-5.07-.27-5.21-7.73.13-8.16,6-8.44,5.76.71,6.19,12,0,13.65-6.75,13.64c-3.1-.18-4.78-1.49-5.07-3.93.1-1.6.75-2.44,2-2.53,2.06.28,2.63,1.54,1.69,3.79C165.48,24,166,24.47,166.75,24.47Zm.42-23.2c-1.78.18-2.72,2.58-2.81,7.17,0,4,.93,6.09,2.81,6.19s3-2.16,3-6.47S169,1.45,167.17,1.27Z"/><path class="cls-1" d="M198.91,21.66l.56,1.4a14.43,14.43,0,0,1-7.87,2.53q-9.84-.42-10.27-11.53Q181.9,1.13,192.72.42q8.73.57,9.14,11.11-.13,7.59-5.62,9.14-3.24.7-2.67-2.67-1.69,2.67-4.08,2.67-3.24-.14-3.09-4.92,1-10,7.17-10.83a2.46,2.46,0,0,1,2.11,1.41l.28-1h2.53q-2,8.87-2.39,12.38c-.1.66.14,1,.7,1,2.34-.46,3.61-2.86,3.8-7.17q-.15-9.55-7.88-9.84-7.72.71-8.15,12.09.42,9.57,7.31,10.27A13.42,13.42,0,0,0,198.91,21.66ZM190.61,19q3.52-1.11,4.36-10.54c.1-1.5-.33-2.25-1.26-2.25Q190.19,7,189.35,16C189.35,18,189.77,19,190.61,19Z"/><path class="cls-1" d="M222.22,32.2h-6.89V31.08c1.4.09,2.06-.8,2-2.67V23.77a3.15,3.15,0,0,1-3.09,1.68q-5.05-.14-5.2-8.57.27-8.58,5.62-8.86a4.42,4.42,0,0,1,3.66,2.25l1.26-2.39.85.28V28.27c-.1,2,.51,2.9,1.83,2.81ZM214.9,9.28q-2.67.15-2.67,7.45c0,4.6.85,7,2.53,7.18,1.88-.19,2.86-2.68,3-7.46S216.78,9.38,214.9,9.28Z"/><path class="cls-1" d="M241.72,32.2h-6.89V31.08c1.41.09,2.06-.8,2-2.67V23.77a3.15,3.15,0,0,1-3.09,1.68q-5.07-.14-5.21-8.57.28-8.58,5.63-8.86a4.43,4.43,0,0,1,3.66,2.25l1.26-2.39.84.28V28.27c-.09,2,.52,2.9,1.83,2.81ZM234.41,9.28q-2.67.15-2.67,7.45,0,6.9,2.53,7.18c1.87-.19,2.86-2.68,2.95-7.46S236.29,9.38,234.41,9.28Z"/><path class="cls-1" d="M251.39,19.41c1.59.09,2.43,1,2.53,2.81-.1,1.88-.94,2.86-2.53,3a2.66,2.66,0,0,1-2.82-2.81C248.67,20.49,249.6,19.5,251.39,19.41Z"/><path class="cls-1" d="M271.74,21l.84.57q-1.68,4.22-4.64,4.07-5.62-.14-5.76-8.71.13-8.73,5.76-9c2.62.18,4.08,1.45,4.36,3.79,0,1.41-.61,2.11-1.83,2.11q-2.25-.55-1.12-3.09c-.1-1.13-.61-1.74-1.55-1.83-1.69.28-2.48,2.91-2.39,7.87q0,7,3.09,7.18C269.82,23.91,270.89,22.92,271.74,21Z"/><path class="cls-1" d="M285.48,7.88q5.63.27,5.77,9-.15,8.57-5.77,8.71-5.78,0-5.77-8.43Q279.86,8.16,285.48,7.88Zm0,1Q282.81,9,282.81,17q0,7.45,2.67,7.59T288,16.88C288,11.63,287.17,9,285.48,8.86Z"/><path class="cls-1" d="M319.33,25h-6.19V23.91c1.13.09,1.64-.8,1.55-2.68V13.78c0-2.62-.61-3.94-1.83-3.94q-2.39.71-2.67,4.79v6.46c0,2,.52,2.91,1.55,2.82V25h-6.05V23.91c1.13.19,1.64-.75,1.55-2.82V14.2c0-2.9-.57-4.36-1.69-4.36q-2.25.71-2.53,5.63v5.76c-.1,2,.42,2.87,1.55,2.68V25h-6.33V23.91c1.12.09,1.64-.8,1.54-2.68v-8c.1-2-.42-2.86-1.54-2.67V9.42L303,8v3.09c.84-2.06,2.11-3,3.8-2.95s2.67,1.17,3.23,3.51q1.54-3.51,3.94-3.51,3.79.13,3.79,5.34v7.73c-.09,1.88.43,2.77,1.55,2.68Z"/></g></g></svg>