<svg xmlns="http://www.w3.org/2000/svg" viewBox="0 0 547.25 163.98"><defs><style>.cls-1{fill:#fff;}</style></defs><title>snow_zyf_hello</title><g id="图层_2" data-name="图层 2"><g id="Hello"><path class="cls-1" d="M102.34,48.24,99.51,6.64l5-.39,7,102.64L113,128.32a5,5,0,0,1-1.76,1.81,3,3,0,0,1-1.51.39,2,2,0,0,1-1.27-.78c-.43-.49-.7-2.1-.83-4.84L104,73.05,8.3,79.69l-3,45.51c-.19,2.73-.5,4.37-.92,4.93a1.55,1.55,0,0,1-1.42.73,2.8,2.8,0,0,1-1.32-.49A5.34,5.34,0,0,1,0,128.71l1.37-19.53L8.4,6.64l5,.29L10,54.79Z"/><path class="cls-1" d="M156.13,95.9q1.47-5.76,2.29-8.69t1.86-6.55c.68-2.4,1.19-4.36,1.51-5.86A6,6,0,0,1,163,71.88q.74-.69,6.16-1.76t14.3-3.66A104.25,104.25,0,0,0,200.22,60a64,64,0,0,0,14-9.18q6.09-5.32,7.61-9.08a17,17,0,0,0,1.52-5.62,8.61,8.61,0,0,0-.74-2.73Q222,31.93,216,29a32.69,32.69,0,0,0-14.5-3.08,42.21,42.21,0,0,0-25.2,8,56.6,56.6,0,0,0-17.67,19.77Q152.42,65.34,151.83,81t6,26.56a33,33,0,0,0,11.47,11.82q7.28,4.48,18.7,4.49a46.08,46.08,0,0,0,11.24-1.22,104.72,104.72,0,0,0,15.86-5.67q10.22-4.34,15.48-9.42c3.52-3.39,5.62-5.24,6.3-5.57a6.09,6.09,0,0,1,2.39-.53c.92,0,1.52.66,1.81,2.1s-.5,3-2.39,4.68q-7.62,6.94-11.87,9.28t-11.37,5.62a60.28,60.28,0,0,1-16,4.63,93.52,93.52,0,0,1-12.84,1.37,38,38,0,0,1-19.39-4.83q-8.34-4.84-14.6-15t-6.15-27.15q.09-15.33,5.76-26.95a67.53,67.53,0,0,1,13.24-19,54.7,54.7,0,0,1,16.89-11.33,49.18,49.18,0,0,1,20.26-3.76q10.54.3,17.83,4.4t10.35,9.67a25.66,25.66,0,0,1,3.12,12.45,28.39,28.39,0,0,1-3.27,13.33Q226,70,208.23,81.79T173.32,94.63Q156.13,95.71,156.13,95.9Z"/><path class="cls-1" d="M279.64,31.64l.2-8,.5-1.17,1.49-.78,2.28,1.07,1,6.64v95.12q0,5.17-.49,5.57c-.33.26-1.07.29-2.24.1a3.54,3.54,0,0,1-2.06-.69c-.45-.39-.68-1.62-.68-3.71V31.64Z"/><path class="cls-1" d="M328.15,31.64l.2-8,.5-1.17,1.49-.78,2.29,1.07,1,6.64v95.12q0,5.17-.49,5.57c-.32.26-1.07.29-2.24.1a3.48,3.48,0,0,1-2.05-.69c-.46-.39-.69-1.62-.69-3.71V31.64Z"/><path class="cls-1" d="M373.34,70.51q.69-15.44,7.52-25.78a50.19,50.19,0,0,1,18.61-16.65q11.76-6.3,22.7-5.13,7,.78,15.43,5.91t13.82,16.65q5.41,11.52,4.74,30.08-.89,22.36-8.35,33.15t-17.34,15.58a40.51,40.51,0,0,1-20.9,4,33.55,33.55,0,0,1-15.52-4.78q-6.84-4.2-14.26-17.83T373.34,70.51Zm5.28,2.34q-.78,9.77,2.49,16.9t12,11.23a42.07,42.07,0,0,0,20,3.61,57.39,57.39,0,0,0,18.65-4Q441.42,96.87,446,89.7t4.93-19.58A48.28,48.28,0,0,0,446.68,48a35,35,0,0,0-11.47-13.87A29.24,29.24,0,0,0,421,28.52q-6.45-.49-16.46,3.32T389.85,41.5a49.55,49.55,0,0,0-7.62,13.63A62,62,0,0,0,378.62,72.85Z"/><path class="cls-1" d="M514,148.14a17.58,17.58,0,0,1,2-7.71,14.48,14.48,0,0,1,5.61-5.62,15.2,15.2,0,0,1,21.19,5.77,16.49,16.49,0,0,1,2.35,8.15,14.25,14.25,0,0,1-1.91,7.52,15.25,15.25,0,0,1-5.76,5.62,15.89,15.89,0,0,1-7.91,2.09,14.12,14.12,0,0,1-4.44-.53,13.37,13.37,0,0,1-4.06-1.86,19.33,19.33,0,0,1-4.15-4.59,13.6,13.6,0,0,1-2.68-5.56A26.34,26.34,0,0,1,514,148.14ZM515.61,0l31.64.39-1.57,11.13L537,119.24l-10.84.78-4-51.37Z"/></g></g></svg>