<?xml version="1.0" standalone="no"?>
<!DOCTYPE svg PUBLIC "-//W3C//DTD SVG 1.1//EN" "http://www.w3.org/Graphics/SVG/1.1/DTD/svg11.dtd" >
<svg xmlns="http://www.w3.org/2000/svg">
<metadata></metadata>
<defs>
<font id="porter_sansbold" horiz-adv-x="2334" >
<font-face units-per-em="2048" ascent="1536" descent="-512" />
<missing-glyph horiz-adv-x="1134" />
<glyph horiz-adv-x="0" />
<glyph horiz-adv-x="682" />
<glyph horiz-adv-x="0" />
<glyph horiz-adv-x="0" />
<glyph unicode="&#xd;" horiz-adv-x="1024" />
<glyph unicode=" "  horiz-adv-x="1134" />
<glyph unicode="&#x09;" horiz-adv-x="1134" />
<glyph unicode="&#xa0;" horiz-adv-x="1134" />
<glyph unicode="!" horiz-adv-x="438" d="M262 432h-262v1002h262v-1002zM262 0h-262v252h262v-252z" />
<glyph unicode="&#x22;" horiz-adv-x="862" d="M203 1010h-152q-2 7 -15 55.5t-25.5 94t-12.5 48.5v226h266v-232q0 -2 -14.5 -46t-29.5 -91.5t-17 -54.5zM612 1010h-151q-2 7 -15 55.5t-25.5 94t-12.5 48.5v226h266v-232q0 -2 -14.5 -46t-30 -91.5t-17.5 -54.5z" />
<glyph unicode="#" horiz-adv-x="2054" d="M135 815v258h385q23 64 64 185t61 176h273l-123 -361h495q23 64 64 185t61 176h273l-123 -361h270v-258h-358q-12 -33 -35.5 -98.5t-34.5 -98.5h307v-258h-395l-125 -360h-272l122 360h-495l-125 -360h-272l122 360h-262v258h350l68 197h-295zM707 815l-68 -197h491 l70 197h-493z" />
<glyph unicode="$" horiz-adv-x="1925" d="M63 344l222 152q75 -113 195 -172.5t263 -67.5v346q-55 7 -108 17.5t-119.5 28.5t-123 40t-112.5 55.5t-95 73t-63 93t-24 114.5q0 71 31.5 132t85 103t119 74.5t140 52t141 30.5t128.5 14v165h254v-165q205 -13 372 -101t271 -254l-231 -139q-70 102 -177 162.5 t-235 75.5v-340q55 -7 109.5 -17t122.5 -28t127.5 -40.5t117.5 -56t99 -73.5t66.5 -94t25.5 -115q0 -73 -33 -135t-89 -104t-124 -74.5t-146 -51.5t-145 -29.5t-131 -13.5v-133h-254v133q-218 6 -394.5 89t-285.5 253zM1403 410q0 27 -23.5 51t-64.5 41.5t-83 30.5 t-94.5 22.5t-81 14t-59.5 8.5v-322q406 29 406 154zM360 1024q0 -39 46 -70.5t118.5 -51t122 -29t96.5 -15.5v318q-28 -1 -58 -4t-77.5 -9t-88 -17.5t-78 -27t-59.5 -40t-22 -54.5z" />
<glyph unicode="%" horiz-adv-x="1869" d="M236 0h-375l1458 1434h375zM0 1116q0 318 356 318q363 0 363 -318q0 -164 -93 -240.5t-259 -76.5q-367 0 -367 317zM356 1022q133 0 133 94q0 92 -122 92q-136 0 -136 -92q0 -94 125 -94zM856 315q0 318 356 318q363 0 363 -318q0 -165 -93 -241t-259 -76 q-367 0 -367 317zM1212 221q134 0 134 94q0 50 -35 71.5t-88 21.5q-136 0 -136 -93q0 -94 125 -94z" />
<glyph unicode="&#x26;" horiz-adv-x="2265" d="M20 322q0 26 12 54t38 56.5t51.5 53.5t67.5 54t70.5 48.5t77 46.5t70 39t65 35.5t48.5 25.5q-354 212 -354 393q0 61 24 111.5t62.5 83.5t94 58.5t110 39t119.5 22t114.5 11t102.5 2.5q49 0 98 -3t112.5 -11.5t119 -22.5t110.5 -39t94 -57.5t63.5 -81t24.5 -106.5 q0 -68 -42 -137.5t-109 -124.5t-134 -96.5t-133 -69.5l521 -304q150 65 288 150l176 -219q-118 -66 -204 -96l391 -238h-457l-213 125q-397 -133 -706 -133q-773 0 -773 330zM311 322q0 -91 484 -91q96 0 230.5 21t209.5 53q-71 43 -152.5 90t-179 102.5t-153.5 88.5 l-64 -31q-63 -31 -115.5 -58.5t-118 -63.5t-103.5 -65.5t-38 -45.5zM993 985q49 25 100.5 64t51.5 71q0 41 -80.5 69t-155 37t-118.5 9q-30 0 -82 -5t-117.5 -16t-111.5 -35t-46 -55q0 -29 38.5 -71.5t97 -85t102.5 -70.5t80 -49q46 22 125.5 70.5t113.5 66.5h2z" />
<glyph unicode="'" horiz-adv-x="471" d="M203 1010h-152q-2 7 -15 55.5t-25.5 94t-12.5 48.5v226h266v-232q0 -2 -14.5 -46t-29.5 -91.5t-17 -54.5z" />
<glyph unicode="(" horiz-adv-x="806" d="M-8 717q0 131 35.5 264t101 251t171.5 208t235 127l172 -226q-101 -20 -188 -83t-144 -150t-89 -189t-32 -202t32 -202t89 -189t144 -150.5t188 -83.5l-172 -225q-129 37 -235 127t-171.5 208t-101 251t-35.5 264z" />
<glyph unicode=")" horiz-adv-x="806" d="M707 717q0 -131 -35.5 -264t-101 -251t-171.5 -208t-235 -127l-172 225q134 26 239.5 126t159 232t53.5 267t-53.5 266.5t-159 231.5t-239.5 126l172 226q129 -37 235 -127t171.5 -208t101 -251t35.5 -264z" />
<glyph unicode="*" horiz-adv-x="770" d="M618 1118l-100 -166l-106 80v-162h-197v162l-106 -80l-101 166l156 76q-27 17 -82 39t-76 33l94 172l115 -80v164h197v-164l114 80l95 -172q-21 -11 -76 -33t-82 -39z" />
<glyph unicode="+" horiz-adv-x="1462" d="M0 588v258h483v481h258v-481h480v-258h-480v-482h-258v482h-483z" />
<glyph unicode="," horiz-adv-x="391" d="M133 -236h-196q44 102 62 238.5t3 247.5h262v-252z" />
<glyph unicode="-" horiz-adv-x="1486" d="M0 588v258h1221v-258h-1221z" />
<glyph unicode="." horiz-adv-x="491" d="M262 0h-262v252h262v-252z" />
<glyph unicode="/" horiz-adv-x="1335" d="M221 0h-334l1174 1434h334z" />
<glyph unicode="0" horiz-adv-x="1906" d="M31 717q0 153 39.5 274.5t110.5 204t174 136.5t224.5 78t266.5 24q151 0 274.5 -21.5t232 -73t182.5 -132t116.5 -205t42.5 -285.5q0 -153 -39.5 -274.5t-110.5 -204t-174 -136.5t-224.5 -78t-266.5 -24q-151 0 -274.5 21.5t-232 73t-182.5 132t-116.5 205t-42.5 285.5z M846 258q100 0 182.5 12t159.5 44t129 82.5t83.5 132t31.5 188.5q0 100 -28.5 179t-77.5 131t-120 86t-151.5 48.5t-175.5 14.5q-100 0 -182.5 -12t-159.5 -44t-129 -82.5t-83.5 -132t-31.5 -188.5q0 -100 28.5 -179t77.5 -131t120 -86t151.5 -48.5t175.5 -14.5z" />
<glyph unicode="1" horiz-adv-x="686" d="M-33 1026v285l275 123h176v-1434h-258v1110z" />
<glyph unicode="2" horiz-adv-x="1701" d="M281 944l-230 156q117 173 312.5 262.5t416.5 89.5q95 0 186 -12.5t185.5 -46t164.5 -84.5t114.5 -134.5t44.5 -189.5q0 -119 -44 -227.5t-119.5 -191.5t-174 -148.5t-208.5 -105.5t-222 -54h825v-258h-1520v238q79 6 179.5 26t216.5 55.5t230 82t219.5 109t186.5 132 t129 156.5t48 178q0 66 -44 112.5t-115 68t-133.5 30t-125.5 8.5q-352 0 -522 -252z" />
<glyph unicode="3" horiz-adv-x="1787" d="M53 342l226 145q83 -121 215 -185t284 -64q496 0 496 204q0 28 -13.5 50.5t-40.5 38t-55.5 27.5t-71.5 18.5t-75.5 11t-80 5.5t-72 1.5t-65 0t-46.5 -0.5v256q202 0 300 20q169 35 169 127q0 46 -31.5 82.5t-77.5 57.5t-103.5 35t-104.5 19t-87 5q-178 0 -314.5 -58.5 t-228.5 -195.5l-225 150q116 179 308.5 269.5t418.5 90.5q77 0 152.5 -8.5t158 -27t151.5 -53.5t125 -83.5t88 -121t32 -161.5q0 -74 -56.5 -147t-128.5 -102q93 -25 165.5 -117.5t72.5 -188.5q0 -93 -39.5 -171.5t-104 -130.5t-148 -88.5t-169.5 -53t-170 -16.5 q-113 0 -201.5 7t-187 29.5t-176.5 61t-154 105t-135 157.5z" />
<glyph unicode="4" horiz-adv-x="1742" d="M10 344v205l1071 885h193v-830h190v-260h-190v-344h-260v344h-1004zM444 604h570v469q-81 -65 -272.5 -225t-297.5 -244z" />
<glyph unicode="5" horiz-adv-x="1808" d="M242 487q84 -124 217 -186.5t289 -62.5q47 0 92.5 3t107.5 11t113 26t96.5 43.5t71.5 68t26 95.5t-14.5 95.5t-38 71t-59.5 49t-72.5 32.5t-85 18.5t-87.5 8.5t-89 2q-436 0 -541 -123l-215 27l166 768h1208v-258h-1007q-10 -46 -34 -137.5t-34 -137.5q81 48 212.5 73 t246.5 25q124 0 220 -11t191.5 -44t158 -88t101 -148t38.5 -219q0 -92 -40.5 -174t-108 -141.5t-152 -103.5t-174.5 -66t-175 -22q-113 0 -201.5 7t-187 29.5t-176.5 61t-154 105t-135 157.5z" />
<glyph unicode="6" horiz-adv-x="1853" d="M1608 1231l-215 -182q-158 163 -500 163q-91 0 -177.5 -20.5t-164 -61t-135 -110t-80.5 -158.5q84 68 258.5 105t314.5 37q87 0 159 -5.5t146.5 -20.5t133 -39.5t110.5 -64t86 -92.5t54 -127.5t20 -165.5q0 -92 -40.5 -174t-107.5 -141.5t-152 -103.5t-174.5 -66 t-174.5 -22q-104 0 -194.5 7t-187 26.5t-174.5 51t-149 83.5t-119 120t-76 164t-28 213q0 251 107.5 434.5t299 278t443.5 94.5q240 0 395.5 -44.5t321.5 -178.5zM315 555l-2 -14q0 -64 38.5 -117t97.5 -86.5t131.5 -57t138.5 -33t121 -9.5q39 0 78 2t92 8t99 16.5 t92.5 29.5t79.5 44t54 63t21 84q0 61 -18 108.5t-52.5 76.5t-74 48.5t-94.5 28.5t-101 12t-105 3q-82 0 -159 -8t-165.5 -28t-160.5 -64t-111 -107z" />
<glyph unicode="7" horiz-adv-x="1734" d="M49 1176v258h1491v-203q-131 -108 -249 -250t-211 -302t-149.5 -337.5t-60.5 -341.5h-256q0 315 133 615.5t361 560.5h-1059z" />
<glyph unicode="8" horiz-adv-x="1755" d="M645 -18q-84 0 -168.5 14.5t-169 49t-149 84t-104.5 126.5t-40 170q0 108 81 194t192 123q-96 28 -157.5 95.5t-61.5 162.5q0 93 40 170t104.5 128t148 86.5t168.5 51t169 15.5h156q84 0 169 -15.5t169 -51t148.5 -86.5t104.5 -128t40 -170q0 -95 -61.5 -162.5 t-157.5 -95.5q111 -37 191.5 -122.5t80.5 -194.5q0 -93 -40 -170t-104.5 -126.5t-149 -84t-169 -49t-168.5 -14.5h-262zM872 238q54 0 114.5 8.5t129.5 28.5t113.5 61.5t44.5 99.5q0 42 -33.5 73t-79 46.5t-107 25t-102 11.5t-80.5 2h-192q-40 0 -80.5 -2t-102 -11.5 t-106.5 -25t-78.5 -46.5t-33.5 -73q0 -58 44.5 -99.5t113 -61.5t129 -28.5t114.5 -8.5h192zM715 850h123q29 0 60.5 1.5t79 6.5t87.5 15.5t76.5 26.5t58 42t21.5 59q0 45 -31 81t-77 57t-103.5 34.5t-104 18t-86.5 4.5q-487 0 -487 -195q0 -33 21.5 -59t58 -42t76.5 -26.5 t87.5 -15.5t79 -6.5t60.5 -1.5z" />
<glyph unicode="9" horiz-adv-x="1839" d="M51 205l215 182q159 -164 500 -164q91 0 177.5 20.5t164 61t135 110t80.5 158.5q-84 -68 -258 -104.5t-315 -36.5q-87 0 -159 5.5t-147 20.5t-133 39t-110 63.5t-86 92.5t-54 127.5t-20 165.5q0 92 40.5 174.5t107.5 142t151.5 103.5t175 66t174.5 22q103 0 193.5 -7.5 t187 -27t174.5 -51.5t149 -83.5t119.5 -119.5t76.5 -164t28 -213q0 -188 -62 -340.5t-174 -254.5t-268.5 -156.5t-345.5 -54.5q-240 0 -395.5 44.5t-321.5 178.5zM1343 881l3 14q0 64 -38.5 117t-97.5 86.5t-131.5 57t-138.5 33t-121 9.5q-39 0 -78 -2t-92 -8.5t-99 -17 t-92.5 -29.5t-79.5 -44t-54 -63t-21 -84q0 -53 14.5 -95t37.5 -70.5t59 -49.5t72 -32.5t84.5 -18t88 -8.5t89.5 -2q63 0 123 4t134.5 17.5t135 35.5t116 60.5t86.5 89.5z" />
<glyph unicode=":" horiz-adv-x="391" d="M262 0h-262v252h262v-252zM262 881h-262v252h262v-252z" />
<glyph unicode=";" horiz-adv-x="391" d="M262 881h-262v252h262v-252zM133 -236h-196q44 102 62 238.5t3 247.5h262v-252z" />
<glyph unicode="&#x3c;" horiz-adv-x="1038" d="M2 719l586 715h334l-584 -717q506 -623 584 -717h-334z" />
<glyph unicode="=" horiz-adv-x="1576" d="M0 801v258h1221v-258h-1221zM0 375v258h1221v-258h-1221z" />
<glyph unicode="&#x3e;" horiz-adv-x="1038" d="M336 1434l586 -715l-586 -719h-334q78 94 584 717l-584 717h334z" />
<glyph unicode="?" horiz-adv-x="1767" d="M848 0h-262v252h262v-252zM289 950l-244 146q65 114 189 202t265.5 132.5t276.5 44.5q97 0 189.5 -13.5t188 -48t166.5 -87t116 -138t45 -193.5q0 -76 -21.5 -139t-58 -107.5t-83.5 -80.5t-99.5 -61.5t-104.5 -47t-99.5 -40.5t-84 -38.5t-58.5 -44.5t-22 -55h-264 q0 86 34.5 148t90 98t123 63t135 51t123 54t90.5 80.5t35 121.5q0 45 -30 83.5t-75.5 63t-101 42.5t-104.5 25.5t-87 7.5q-336 0 -530 -269z" />
<glyph unicode="@" horiz-adv-x="2263" d="M1722 184q-70 -63 -134.5 -101t-139.5 -55.5t-139 -22.5t-170 -5h-283q-145 0 -266.5 24t-224.5 78t-174 136.5t-110.5 204t-39.5 274.5t39.5 274.5t110.5 204t174 136.5t224.5 78t266.5 24h283q139 0 263 -27.5t230.5 -85.5t183.5 -143t120.5 -206t43.5 -267 q0 -58 -3.5 -102.5t-17 -100t-36.5 -91.5t-67 -61.5t-105 -25.5q-69 0 -132.5 48t-109.5 117q-78 -155 -415 -155h-28q-65 0 -99 0.5t-97.5 3.5t-100 9.5t-90.5 20t-85.5 32.5t-69 48.5t-57.5 68t-33.5 90.5t-13.5 116q0 83 20.5 147t55 105.5t84 69.5t105 42t120.5 20.5 t126.5 7.5t128.5 0q49 -1 73 -1q108 0 185.5 -18.5t136.5 -61.5t88.5 -120.5t29.5 -190.5q0 -44 25 -93.5t65 -49.5q41 0 41 90q0 261 -151 398.5t-414 137.5h-283q-95 0 -178 -18t-153 -57t-120.5 -95.5t-79 -138t-28.5 -180.5t28.5 -180.5t79 -138.5t120.5 -96t153 -57 t178 -18h283q89 0 196 20t146 66zM1094 551q44 0 75 3t63.5 13.5t52.5 28.5t33 50t13 77q0 56 -17.5 93.5t-52 55.5t-73 24.5t-94.5 6.5h-174q-56 0 -94.5 -6.5t-73.5 -24.5t-52.5 -55.5t-17.5 -93.5t18 -91.5t54 -52.5t73.5 -22.5t92.5 -5.5h174z" />
<glyph unicode="A" d="M1208 1434l1002 -1434h-318l-241 344h-1069l-246 -344h-322l1024 1434h170zM1122 1104l-356 -500h707z" />
<glyph unicode="B" horiz-adv-x="1964" d="M23 0v1434h1144q146 0 253.5 -42.5t172 -139.5t64.5 -242q0 -65 -36.5 -133t-90.5 -107q79 -17 137.5 -69.5t86.5 -124t28 -152.5q0 -110 -37.5 -193.5t-105.5 -133t-155.5 -73.5t-193.5 -24h-1267zM283 588v-330h1007q58 0 107 14.5t85 53.5t36 98q0 78 -61 121t-142 43 h-1032zM283 1176v-330h882q57 0 106 14t85.5 52.5t36.5 97.5q0 86 -66 126t-160 40h-884z" />
<glyph unicode="C" horiz-adv-x="2097" d="M1083 1176h-239q-95 0 -175.5 -14.5t-152 -48.5t-121 -85.5t-78 -130.5t-28.5 -180t28.5 -180t78 -130.5t121 -85.5t152 -48.5t175.5 -14.5h239q110 0 205 20.5t186.5 74.5t149.5 139l248 -150q-41 -73 -95 -129t-117 -92.5t-128.5 -61t-144 -37t-148.5 -17.5t-156 -5 h-239q-145 0 -266.5 24t-225 78.5t-174.5 136.5t-111 203.5t-40 274.5t40 274.5t111 203.5t174.5 136.5t225 78.5t266.5 24h239q86 0 156 -5t148.5 -17.5t144 -37t128.5 -61t117 -92.5t95 -129l-248 -150q-58 85 -149.5 139t-186.5 74.5t-205 20.5z" />
<glyph unicode="D" horiz-adv-x="2060" d="M25 0v1434h989q145 0 266.5 -24t225 -78.5t174.5 -136.5t111 -203.5t40 -274.5t-40 -274.5t-111 -203.5t-174.5 -136.5t-225 -78.5t-266.5 -24h-989zM283 1176v-918h731q95 0 175.5 14.5t152 48.5t121 85.5t78 130.5t28.5 180t-28.5 180t-78 130.5t-121 85.5t-152 48.5 t-175.5 14.5h-731z" />
<glyph unicode="E" horiz-adv-x="1937" d="M276 1176v-330h1133v-258h-1133v-330h1364v-258h-1624v1434h1622v-258h-1362z" />
<glyph unicode="F" horiz-adv-x="1847" d="M276 1176v-330h1133v-258h-1133v-588h-260v1434h1622v-258h-1362z" />
<glyph unicode="G" horiz-adv-x="2240" d="M1874 1092l-248 -150q-58 85 -149.5 139t-186.5 74.5t-205 20.5h-241q-95 0 -175 -14.5t-151 -48.5t-120.5 -86t-78 -131t-28.5 -179t28.5 -179t78 -131t120.5 -86t151 -48.5t175 -14.5h241q62 0 120 6.5t118 20.5t111.5 39.5t95.5 60.5t75.5 87t45.5 116h-600v258h893 v-129q0 -156 -44.5 -278.5t-121.5 -204t-187.5 -135t-235 -76.5t-270.5 -23h-241q-145 0 -266.5 24t-224.5 78t-174 136.5t-110.5 204t-39.5 274.5t39.5 274.5t110.5 204t174 136.5t224.5 78t266.5 24h241q86 0 156 -5t148.5 -17.5t144 -37t128.5 -61t117 -92.5t95 -129z " />
<glyph unicode="H" horiz-adv-x="1927" d="M1655 0h-260v588h-1119v-588h-258v1434h258v-588h1119v588h260v-1434z" />
<glyph unicode="I" horiz-adv-x="647" d="M311 0h-258v1434h258v-1434z" />
<glyph unicode="J" horiz-adv-x="1898" d="M774 258q76 0 138 4.5t128.5 17t118 34t99 56.5t78.5 82.5t49 114.5t18 150v717h262v-717q0 -153 -39.5 -274.5t-110.5 -204t-174 -136.5t-224.5 -78t-266.5 -24q-88 0 -145 1.5t-139 8.5t-139 20.5t-126.5 38.5t-121 60.5t-103 89.5t-90.5 123l247 150 q58 -85 149.5 -139t186.5 -74.5t205 -20.5z" />
<glyph unicode="K" horiz-adv-x="1878" d="M276 0h-260v1434h260v-523l1024 523h469l-1388 -717l1370 -717h-451l-1024 522v-522z" />
<glyph unicode="L" horiz-adv-x="1773" d="M14 0v1434h258v-1176h1256v-258h-1514z" />
<glyph unicode="M" horiz-adv-x="2179" d="M287 0h-258v1434h209l733 -1086q122 181 366.5 543t366.5 543h211v-1434h-258v889l-598 -889h-176l-596 887v-887z" />
<glyph unicode="N" horiz-adv-x="1845" d="M1579 0h-195l-1112 1022v-1022h-258v1434h197l1110 -1022v1022h258v-1434z" />
<glyph unicode="O" horiz-adv-x="2146" d="M39 717q0 153 40 274.5t111 203.5t174.5 136.5t225 78.5t266.5 24h242q145 0 266.5 -24t224.5 -78t174 -136.5t110.5 -204t39.5 -274.5t-39.5 -274.5t-110.5 -204t-174 -136.5t-224.5 -78t-266.5 -24h-242q-145 0 -266.5 24t-225 78.5t-174.5 136.5t-111 203.5t-40 274.5 zM1098 258q95 0 175.5 14.5t151.5 48.5t120 86t77.5 131t28.5 179t-28.5 179t-77.5 131t-120 86t-151.5 48.5t-175.5 14.5h-242q-95 0 -175.5 -14.5t-152 -48.5t-121 -85.5t-78 -130.5t-28.5 -180t28.5 -180t78 -130.5t121 -85.5t152 -48.5t175.5 -14.5h242z" />
<glyph unicode="P" horiz-adv-x="1835" d="M1651 1010q0 -76 -14.5 -137t-39.5 -104.5t-65 -75t-84 -51t-103.5 -31t-117.5 -15.5t-131 -4q-163 0 -462 -2t-358 -2v-588h-258v1434h1145q108 0 196 -25t154 -75.5t102 -132.5t36 -191zM276 1176v-330h885q91 0 159.5 40t68.5 124q0 59 -35.5 98t-84 53.5t-106.5 14.5 h-887z" />
<glyph unicode="Q" horiz-adv-x="2283" d="M45 717q0 153 40 274.5t111 203.5t174.5 136.5t225 78.5t266.5 24h242q145 0 266.5 -24t224.5 -78t174 -136.5t110.5 -204t39.5 -274.5q0 -219 -137 -426l538 -291h-440l-250 135q-112 -63 -254 -99t-272 -36h-242q-145 0 -266.5 24t-225 78.5t-174.5 136.5t-111 203.5 t-40 274.5zM770 537h524l254 -138q109 123 109 318q0 100 -28.5 179t-77.5 131t-120 86t-151.5 48.5t-175.5 14.5h-242q-119 0 -216 -24.5t-175 -76.5t-121 -143t-43 -215t43 -215t121 -143t175 -76.5t216 -24.5h242q92 0 221 14z" />
<glyph unicode="R" horiz-adv-x="2048" d="M1659 1010q0 -163 -82 -259.5t-242 -142.5l533 -608h-346l-512 588h-725v-588h-258v1434h1144q108 0 196 -25t154 -75.5t102 -132.5t36 -191zM285 1176v-330h884q57 0 106 14t85.5 52.5t36.5 97.5q0 86 -66 126t-160 40h-886z" />
<glyph unicode="S" horiz-adv-x="2086" d="M33 350l233 148q40 -62 99 -107.5t121 -71t141 -40t144 -19t144 -4.5q623 0 623 154q0 44 -48 75t-128.5 49t-185.5 31.5t-220.5 27.5t-231.5 32t-221 49.5t-185.5 75t-128.5 113.5t-48 161q0 78 38 142.5t103 108t143 75.5t164.5 50t161 26t140.5 8q75 0 128.5 -1.5 t128.5 -6t132 -15t125 -27t121.5 -43t106.5 -62t96 -85.5t75 -111l-217 -145q-34 63 -91.5 109t-118 70.5t-140.5 39t-142.5 18t-140.5 3.5q-38 0 -72.5 -1t-97.5 -5t-113 -14.5t-100 -26.5t-78 -43.5t-28 -63.5q0 -31 17 -55t59 -42t78 -29.5t111.5 -22.5t119.5 -16 t140 -14q89 -9 135.5 -14t132.5 -16.5t134.5 -22t121 -30t115 -40.5t92.5 -52.5t76.5 -68.5t44.5 -85.5t18 -105.5q0 -92 -62.5 -166t-154.5 -118t-207 -74t-211.5 -41t-175.5 -11q-280 0 -404 13q-367 38 -533 223q-46 51 -79 114z" />
<glyph unicode="T" horiz-adv-x="1996" d="M1024 0h-258v1176h-743v258h1746v-258h-745v-1176z" />
<glyph unicode="U" horiz-adv-x="2170" d="M31 717v717h264v-717q0 -100 28.5 -179t78 -131t120.5 -86t151 -48.5t175 -14.5h242q119 0 216 24.5t175 76.5t121 143t43 215v717h262v-717q0 -153 -40 -274.5t-111 -203.5t-174.5 -136.5t-225 -78.5t-266.5 -24h-242q-145 0 -266.5 24t-225 78.5t-174.5 136.5 t-111 203.5t-40 274.5z" />
<glyph unicode="V" horiz-adv-x="2250" d="M2169 1434l-1002 -1434h-170l-1024 1434h322l786 -1104l770 1104h318z" />
<glyph unicode="W" horiz-adv-x="2582" d="M4 1434h285l407 -985q74 176 216 505.5t206 479.5h189l419 -983q322 771 408 983h287l-592 -1434h-195l-422 987q-244 -560 -424 -987h-192z" />
<glyph unicode="X" horiz-adv-x="2093" d="M1980 1434l-829 -713l850 -721h-391l-643 565l-633 -565h-387l837 721l-839 713h389l635 -560l624 560h387z" />
<glyph unicode="Y" horiz-adv-x="2082" d="M817 0v588l-856 846h369l620 -611l611 611h364l-844 -844v-590h-264z" />
<glyph unicode="Z" horiz-adv-x="1802" d="M86 1176v258h1434v-199l-1051 -977h1122v-258h-1575v199l1055 977h-985z" />
<glyph unicode="[" horiz-adv-x="659" d="M-31 -139v1712h525v-252h-265v-1208h265v-252h-525z" />
<glyph unicode="\" horiz-adv-x="1490" d="M1395 0h-334l-1174 1434h334z" />
<glyph unicode="]" horiz-adv-x="737" d="M494 -139h-525v252h267v1208h-267v252h525v-1712z" />
<glyph unicode="^" horiz-adv-x="1062" d="M389 1896h131l535 -360h-350l-250 193l-250 -193h-350z" />
<glyph unicode="_" horiz-adv-x="2007" d="M18 -268v260h1676v-260h-1676z" />
<glyph unicode="`" horiz-adv-x="677" d="M-104 1870h319l447 -332h-312z" />
<glyph unicode="a" d="M1208 1434l1002 -1434h-318l-241 344h-1069l-246 -344h-322l1024 1434h170zM1122 1104l-356 -500h707z" />
<glyph unicode="b" horiz-adv-x="1964" d="M23 0v1434h1144q146 0 253.5 -42.5t172 -139.5t64.5 -242q0 -65 -36.5 -133t-90.5 -107q79 -17 137.5 -69.5t86.5 -124t28 -152.5q0 -110 -37.5 -193.5t-105.5 -133t-155.5 -73.5t-193.5 -24h-1267zM283 588v-330h1007q58 0 107 14.5t85 53.5t36 98q0 78 -61 121t-142 43 h-1032zM283 1176v-330h882q57 0 106 14t85.5 52.5t36.5 97.5q0 86 -66 126t-160 40h-884z" />
<glyph unicode="c" horiz-adv-x="2105" d="M1083 1176h-239q-95 0 -175.5 -14.5t-152 -48.5t-121 -85.5t-78 -130.5t-28.5 -180t28.5 -180t78 -130.5t121 -85.5t152 -48.5t175.5 -14.5h239q110 0 205 20.5t186.5 74.5t149.5 139l248 -150q-41 -73 -95 -129t-117 -92.5t-128.5 -61t-144 -37t-148.5 -17.5t-156 -5 h-239q-145 0 -266.5 24t-225 78.5t-174.5 136.5t-111 203.5t-40 274.5t40 274.5t111 203.5t174.5 136.5t225 78.5t266.5 24h239q86 0 156 -5t148.5 -17.5t144 -37t128.5 -61t117 -92.5t95 -129l-248 -150q-58 85 -149.5 139t-186.5 74.5t-205 20.5z" />
<glyph unicode="d" horiz-adv-x="2060" d="M25 0v1434h989q145 0 266.5 -24t225 -78.5t174.5 -136.5t111 -203.5t40 -274.5t-40 -274.5t-111 -203.5t-174.5 -136.5t-225 -78.5t-266.5 -24h-989zM283 1176v-918h731q95 0 175.5 14.5t152 48.5t121 85.5t78 130.5t28.5 180t-28.5 180t-78 130.5t-121 85.5t-152 48.5 t-175.5 14.5h-731z" />
<glyph unicode="e" horiz-adv-x="1937" d="M276 1176v-330h1133v-258h-1133v-330h1364v-258h-1624v1434h1622v-258h-1362z" />
<glyph unicode="f" horiz-adv-x="1847" d="M276 1176v-330h1133v-258h-1133v-588h-260v1434h1622v-258h-1362z" />
<glyph unicode="g" horiz-adv-x="2199" d="M1874 1092l-248 -150q-58 85 -149.5 139t-186.5 74.5t-205 20.5h-241q-95 0 -175 -14.5t-151 -48.5t-120.5 -86t-78 -131t-28.5 -179t28.5 -179t78 -131t120.5 -86t151 -48.5t175 -14.5h241q62 0 120 6.5t118 20.5t111.5 39.5t95.5 60.5t75.5 87t45.5 116h-600v258h893 v-129q0 -156 -44.5 -278.5t-121.5 -204t-187.5 -135t-235 -76.5t-270.5 -23h-241q-145 0 -266.5 24t-224.5 78t-174 136.5t-110.5 204t-39.5 274.5t39.5 274.5t110.5 204t174 136.5t224.5 78t266.5 24h241q86 0 156 -5t148.5 -17.5t144 -37t128.5 -61t117 -92.5t95 -129z " />
<glyph unicode="h" horiz-adv-x="1927" d="M1655 0h-260v588h-1119v-588h-258v1434h258v-588h1119v588h260v-1434z" />
<glyph unicode="i" horiz-adv-x="647" d="M311 0h-258v1434h258v-1434z" />
<glyph unicode="j" horiz-adv-x="1898" d="M774 258q76 0 138 4.5t128.5 17t118 34t99 56.5t78.5 82.5t49 114.5t18 150v717h262v-717q0 -153 -39.5 -274.5t-110.5 -204t-174 -136.5t-224.5 -78t-266.5 -24q-88 0 -145 1.5t-139 8.5t-139 20.5t-126.5 38.5t-121 60.5t-103 89.5t-90.5 123l247 150 q58 -85 149.5 -139t186.5 -74.5t205 -20.5z" />
<glyph unicode="k" horiz-adv-x="1878" d="M276 0h-260v1434h260v-523l1024 523h469l-1388 -717l1370 -717h-451l-1024 522v-522z" />
<glyph unicode="l" horiz-adv-x="1773" d="M14 0v1434h258v-1176h1256v-258h-1514z" />
<glyph unicode="m" horiz-adv-x="2179" d="M287 0h-258v1434h209l733 -1086q122 181 366.5 543t366.5 543h211v-1434h-258v889l-598 -889h-176l-596 887v-887z" />
<glyph unicode="n" horiz-adv-x="1845" d="M1579 0h-195l-1112 1022v-1022h-258v1434h197l1110 -1022v1022h258v-1434z" />
<glyph unicode="o" horiz-adv-x="2146" d="M39 717q0 153 40 274.5t111 203.5t174.5 136.5t225 78.5t266.5 24h242q145 0 266.5 -24t224.5 -78t174 -136.5t110.5 -204t39.5 -274.5t-39.5 -274.5t-110.5 -204t-174 -136.5t-224.5 -78t-266.5 -24h-242q-145 0 -266.5 24t-225 78.5t-174.5 136.5t-111 203.5t-40 274.5 zM1098 258q95 0 175.5 14.5t151.5 48.5t120 86t77.5 131t28.5 179t-28.5 179t-77.5 131t-120 86t-151.5 48.5t-175.5 14.5h-242q-95 0 -175.5 -14.5t-152 -48.5t-121 -85.5t-78 -130.5t-28.5 -180t28.5 -180t78 -130.5t121 -85.5t152 -48.5t175.5 -14.5h242z" />
<glyph unicode="p" horiz-adv-x="1835" d="M1651 1010q0 -76 -14.5 -137t-39.5 -104.5t-65 -75t-84 -51t-103.5 -31t-117.5 -15.5t-131 -4q-163 0 -462 -2t-358 -2v-588h-258v1434h1145q108 0 196 -25t154 -75.5t102 -132.5t36 -191zM276 1176v-330h885q91 0 159.5 40t68.5 124q0 59 -35.5 98t-84 53.5t-106.5 14.5 h-887z" />
<glyph unicode="q" horiz-adv-x="2283" d="M45 717q0 153 40 274.5t111 203.5t174.5 136.5t225 78.5t266.5 24h242q145 0 266.5 -24t224.5 -78t174 -136.5t110.5 -204t39.5 -274.5q0 -219 -137 -426l538 -291h-440l-250 135q-112 -63 -254 -99t-272 -36h-242q-145 0 -266.5 24t-225 78.5t-174.5 136.5t-111 203.5 t-40 274.5zM770 537h524l254 -138q109 123 109 318q0 100 -28.5 179t-77.5 131t-120 86t-151.5 48.5t-175.5 14.5h-242q-119 0 -216 -24.5t-175 -76.5t-121 -143t-43 -215t43 -215t121 -143t175 -76.5t216 -24.5h242q92 0 221 14z" />
<glyph unicode="r" horiz-adv-x="2048" d="M1659 1010q0 -163 -82 -259.5t-242 -142.5l533 -608h-346l-512 588h-725v-588h-258v1434h1144q108 0 196 -25t154 -75.5t102 -132.5t36 -191zM285 1176v-330h884q57 0 106 14t85.5 52.5t36.5 97.5q0 86 -66 126t-160 40h-886z" />
<glyph unicode="s" horiz-adv-x="2086" d="M33 350l233 148q40 -62 99 -107.5t121 -71t141 -40t144 -19t144 -4.5q623 0 623 154q0 44 -48 75t-128.5 49t-185.5 31.5t-220.5 27.5t-231.5 32t-221 49.5t-185.5 75t-128.5 113.5t-48 161q0 78 38 142.5t103 108t143 75.5t164.5 50t161 26t140.5 8q75 0 128.5 -1.5 t128.5 -6t132 -15t125 -27t121.5 -43t106.5 -62t96 -85.5t75 -111l-217 -145q-34 63 -91.5 109t-118 70.5t-140.5 39t-142.5 18t-140.5 3.5q-38 0 -72.5 -1t-97.5 -5t-113 -14.5t-100 -26.5t-78 -43.5t-28 -63.5q0 -31 17 -55t59 -42t78 -29.5t111.5 -22.5t119.5 -16 t140 -14q89 -9 135.5 -14t132.5 -16.5t134.5 -22t121 -30t115 -40.5t92.5 -52.5t76.5 -68.5t44.5 -85.5t18 -105.5q0 -92 -62.5 -166t-154.5 -118t-207 -74t-211.5 -41t-175.5 -11q-280 0 -404 13q-367 38 -533 223q-46 51 -79 114z" />
<glyph unicode="t" horiz-adv-x="1996" d="M1024 0h-258v1176h-743v258h1746v-258h-745v-1176z" />
<glyph unicode="u" horiz-adv-x="2170" d="M31 717v717h264v-717q0 -100 28.5 -179t78 -131t120.5 -86t151 -48.5t175 -14.5h242q119 0 216 24.5t175 76.5t121 143t43 215v717h262v-717q0 -153 -40 -274.5t-111 -203.5t-174.5 -136.5t-225 -78.5t-266.5 -24h-242q-145 0 -266.5 24t-225 78.5t-174.5 136.5 t-111 203.5t-40 274.5z" />
<glyph unicode="v" horiz-adv-x="2250" d="M2169 1434l-1002 -1434h-170l-1024 1434h322l786 -1104l770 1104h318z" />
<glyph unicode="w" horiz-adv-x="2582" d="M4 1434h285l407 -985q74 176 216 505.5t206 479.5h189l419 -983q322 771 408 983h287l-592 -1434h-195l-422 987q-244 -560 -424 -987h-192z" />
<glyph unicode="x" horiz-adv-x="2093" d="M1980 1434l-829 -713l850 -721h-391l-643 565l-633 -565h-387l837 721l-839 713h389l635 -560l624 560h387z" />
<glyph unicode="y" horiz-adv-x="2082" d="M817 0v588l-856 846h369l620 -611l611 611h364l-844 -844v-590h-264z" />
<glyph unicode="z" horiz-adv-x="1802" d="M86 1176v258h1434v-199l-1051 -977h1122v-258h-1575v199l1055 977h-985z" />
<glyph unicode="{" horiz-adv-x="702" d="M-16 629v182q30 15 52.5 41.5t22.5 56.5q0 51 -22.5 154t-22.5 156q0 354 365 354h188v-252q-15 0 -52.5 2t-64.5 3t-62 -3t-57.5 -14.5t-38.5 -33.5t-16 -58q0 -57 26 -167t26 -167q0 -92 -49 -162q49 -74 49 -162q0 -57 -26 -168t-26 -168q0 -34 16 -57t38.5 -33 t58 -14.5t62.5 -3t64 3.5t52 2v-254h-188q-365 0 -365 354q0 54 22.5 158t22.5 153q0 28 -23 54.5t-52 42.5z" />
<glyph unicode="|" horiz-adv-x="430" d="M-41 -90v1644h252v-1644h-252z" />
<glyph unicode="}" horiz-adv-x="702" d="M465 811v-182q-30 -15 -53 -42t-23 -57q0 -49 23.5 -152t23.5 -157q0 -354 -366 -354h-189v254q15 0 52.5 -2t64.5 -3.5t62.5 3t58.5 14.5t39 33t16 57q0 58 -26.5 169t-26.5 167q0 88 49 162q-49 70 -49 162q0 55 26.5 166t26.5 168q0 35 -16 58t-38.5 33.5t-58 14.5 t-62.5 3t-65 -3t-53 -2v252h189q366 0 366 -354q0 -42 -17 -160t-30 -148q0 -29 22.5 -55.5t53.5 -44.5z" />
<glyph unicode="~" horiz-adv-x="1144" d="M807 831h293q-28 -59 -67.5 -117.5t-91 -114.5t-114.5 -91t-125 -35q-184 0 -319 184l8 -12q-23 29 -65 29q-27 0 -55.5 -34.5t-45.5 -70.5h-293q28 59 67.5 117.5t91 115t114.5 91.5t125 35q188 0 317 -183l-4 9q22 -25 64 -25q26 0 54 33.5t46 68.5zM393 643q-2 0 -2 2 zM639 758l2 -2z" />
<glyph unicode="&#xa1;" horiz-adv-x="438" d="M262 1001v-1001h-262v1001h262zM262 1434v-252h-262v252h262z" />
<glyph unicode="&#xa2;" horiz-adv-x="2103" d="M1415 492l230 -142q-103 -163 -268 -248t-369 -98v-135h-254v135q-344 18 -532.5 194.5t-188.5 518.5q0 341 189.5 518t531.5 195v165h254v-165q204 -13 368.5 -98.5t268.5 -248.5l-236 -131q-70 93 -174.5 148t-226.5 69v-905q126 14 231.5 71.5t175.5 156.5zM295 717 q0 -214 120.5 -325.5t338.5 -129.5v909q-216 -18 -337.5 -130t-121.5 -324z" />
<glyph unicode="&#xa3;" horiz-adv-x="1929" d="M1642 1020l-229 -135q-73 151 -196 231t-289 80q-94 0 -168 -17.5t-135 -56.5t-97 -108.5t-43 -167.5h762v-258h-766q-7 -186 -57 -330h1237v-258h-1581v217q73 41 108 153t35 218h-196v258h198q12 308 192 457t501 149q246 0 430.5 -108t293.5 -324z" />
<glyph unicode="&#xa5;" horiz-adv-x="1982" d="M254 559v217h291l-666 658h369l620 -611l611 611h364l-657 -658h289v-217h-476v-145h476v-217h-476v-197h-264v197h-481v217h481v145h-481z" />
<glyph unicode="&#xa8;" horiz-adv-x="841" d="M262 1536h-262v252h262v-252zM801 1536h-262v252h262v-252z" />
<glyph unicode="&#xa9;" horiz-adv-x="2217" d="M39 717q0 153 40 274.5t111 203.5t174.5 136.5t225 78.5t266.5 24h242q145 0 266.5 -24t224.5 -78t174 -136.5t110.5 -204t39.5 -274.5t-39.5 -274.5t-110.5 -204t-174 -136.5t-224.5 -78t-266.5 -24h-242q-145 0 -266.5 24t-225 78.5t-174.5 136.5t-111 203.5t-40 274.5 zM1098 227q119 0 218.5 30t175 88.5t117.5 153.5t42 218t-42 217.5t-117.5 153.5t-175 88.5t-218.5 29.5h-242q-120 0 -219.5 -29.5t-175 -88t-118 -153.5t-42.5 -218t42.5 -218.5t118 -154t175 -88t219.5 -29.5h242zM1284 608l156 -186q-175 -100 -389 -100h-131 q-502 0 -502 401q0 94 26 165.5t70.5 116t110 72t136.5 38.5t159 11h131q257 0 385 -96l-156 -188q-109 67 -229 67h-131q-55 0 -96 -7.5t-78 -26.5t-56.5 -57.5t-19.5 -94.5q0 -45 14 -78t36.5 -52.5t56 -31.5t67.5 -16t76 -4h131q126 0 233 67z" />
<glyph unicode="&#xab;" horiz-adv-x="1435" d="M-35 717l445 543h333l-444 -541l444 -545h-333zM584 717l444 543h334l-444 -541l444 -545h-334z" />
<glyph unicode="&#xad;" horiz-adv-x="1486" d="M0 588v258h1221v-258h-1221z" />
<glyph unicode="&#xae;" horiz-adv-x="2211" d="M1397 834q0 -66 -34 -115t-97 -66l231 -217h-278l-185 180h-246v-180h-221v619h561q123 0 196 -52.5t73 -168.5zM788 874v-79h340q16 0 32 11.5t16 27.5t-16 28t-32 12h-340zM39 717q0 153 40 274.5t111 203.5t174.5 136.5t225 78.5t266.5 24h242q145 0 266.5 -24 t224.5 -78t174 -136.5t110.5 -204t39.5 -274.5t-39.5 -274.5t-110.5 -204t-174 -136.5t-224.5 -78t-266.5 -24h-242q-145 0 -266.5 24t-225 78.5t-174.5 136.5t-111 203.5t-40 274.5zM1098 227q119 0 218.5 30t175 88.5t117.5 153.5t42 218t-42 217.5t-117.5 153.5 t-175 88.5t-218.5 29.5h-242q-120 0 -219.5 -29.5t-175 -88t-118 -153.5t-42.5 -218t42.5 -218.5t118 -154t175 -88t219.5 -29.5h242z" />
<glyph unicode="&#xb0;" horiz-adv-x="614" d="M-31 1325q0 121 70.5 179.5t193.5 58.5q121 0 191 -59t70 -179q0 -235 -265 -235q-122 0 -191 57t-69 178zM231 1309q3 3 3 11.5t-1 15.5t-2 7l-2 -2q2 -10 2 -32z" />
<glyph unicode="&#xb4;" horiz-adv-x="671" d="M342 1870h320l-455 -332h-311z" />
<glyph unicode="&#xb7;" horiz-adv-x="339" d="M221 549h-262v328h262v-328z" />
<glyph unicode="&#xb8;" horiz-adv-x="548" d="M-8 -553v174q20 -1 44.5 -2t66.5 -1.5t78.5 3t72 10.5t56 22t20.5 36q0 49 -215 49l-80 -2v266h209v-108q61 6 110.5 -1t90.5 -29t64 -67t23 -110q0 -39 -11.5 -72t-32 -56t-48 -42t-60.5 -30t-70 -20t-74.5 -12t-75.5 -6t-72.5 -2t-65.5 0h-30z" />
<glyph unicode="&#xba;" horiz-adv-x="614" d="M-31 1325q0 121 70.5 179.5t193.5 58.5q121 0 191 -59t70 -179q0 -235 -265 -235q-122 0 -191 57t-69 178zM231 1309q3 3 3 11.5t-1 15.5t-2 7l-2 -2q2 -10 2 -32z" />
<glyph unicode="&#xbb;" horiz-adv-x="1435" d="M958 1260l445 -543l-445 -543h-333l444 545l-444 541h333zM340 1260l444 -543l-444 -543h-334l445 545l-445 541h334z" />
<glyph unicode="&#xbf;" horiz-adv-x="1767" d="M635 1434h262v-252h-262v252zM1194 483l244 -145q-65 -114 -189 -202t-265.5 -132.5t-276.5 -44.5q-97 0 -189.5 13.5t-188 48t-166.5 86.5t-116 137.5t-45 193.5q0 76 21.5 139.5t58 107.5t83.5 80t99.5 61.5t104.5 47t99.5 41t84 39t58.5 44.5t22 55h264 q0 -67 -21 -120.5t-57.5 -88t-84 -61t-100 -46.5t-105 -38.5t-99.5 -41t-84 -51t-58.5 -71.5t-21.5 -99q0 -45 30 -83.5t75.5 -63t101 -42t104.5 -25t87 -7.5q170 0 300.5 65.5t229.5 202.5z" />
<glyph unicode="&#xc0;" d="M1208 1434l1002 -1434h-318l-241 344h-1069l-246 -344h-322l1024 1434h170zM1122 1104l-356 -500h707zM727 1870h320l446 -332h-311z" />
<glyph unicode="&#xc1;" d="M1208 1434l1002 -1434h-318l-241 344h-1069l-246 -344h-322l1024 1434h170zM1122 1104l-356 -500h707zM1174 1870h319l-455 -332h-311z" />
<glyph unicode="&#xc2;" d="M1208 1434l1002 -1434h-318l-241 344h-1069l-246 -344h-322l1024 1434h170zM1122 1104l-356 -500h707zM1059 1896h131l534 -360h-350l-250 193l-250 -193h-350z" />
<glyph unicode="&#xc3;" d="M1208 1434l1002 -1434h-318l-241 344h-1069l-246 -344h-322l1024 1434h170zM1122 1104l-356 -500h707zM1391 1817h264q-26 -50 -63 -98.5t-83.5 -93t-102.5 -72t-110 -27.5q-59 0 -104.5 15t-73 37t-50.5 43.5t-48 36.5t-53 15q-24 0 -52.5 -30t-48.5 -62h-262 q26 50 63 98.5t83 93t101.5 72t109.5 27.5q62 0 109 -15.5t74 -37.5t49 -44t46 -37.5t53 -15.5q24 0 53 32t46 63z" />
<glyph unicode="&#xc4;" d="M1208 1434l1002 -1434h-318l-241 344h-1069l-246 -344h-322l1024 1434h170zM1122 1104l-356 -500h707zM989 1536h-262v252h262v-252zM1528 1536h-262v252h262v-252z" />
<glyph unicode="&#xc5;" d="M1208 1434l1002 -1434h-318l-241 344h-1069l-246 -344h-322l1024 1434h170zM1122 1104l-356 -500h707zM883 1745q0 112 63.5 168.5t175.5 56.5q116 0 182 -55t66 -170q0 -223 -242 -223q-118 0 -181.5 52.5t-63.5 170.5zM1081 1743q0 -39 41 -39q45 0 45 39t-45 39 q-41 0 -41 -39z" />
<glyph unicode="&#xc6;" horiz-adv-x="2641" d="M1196 1176v-330h924v-258h-924v-330h1153v-258h-1411v344h-430l-246 -344h-319l1022 1434h1384v-258h-1153zM690 604h248v344z" />
<glyph unicode="&#xc7;" horiz-adv-x="2185" d="M1083 1176h-239q-95 0 -175.5 -14.5t-152 -48.5t-121 -85.5t-78 -130.5t-28.5 -180t28.5 -180t78 -130.5t121 -85.5t152 -48.5t175.5 -14.5h239q110 0 205 20.5t186.5 74.5t149.5 139l248 -150q-41 -73 -95 -129t-117 -92.5t-128.5 -61t-144 -37t-148.5 -17.5t-156 -5 h-239q-145 0 -266.5 24t-225 78.5t-174.5 136.5t-111 203.5t-40 274.5t40 274.5t111 203.5t174.5 136.5t225 78.5t266.5 24h239q86 0 156 -5t148.5 -17.5t144 -37t128.5 -61t117 -92.5t95 -129l-248 -150q-58 85 -149.5 139t-186.5 74.5t-205 20.5zM807 -537v175 q20 -2 44 -2.5t66.5 -1.5t79 3t72 10.5t56 21.5t20.5 36q0 49 -215 49l-80 -2v266h209v-108q61 6 110.5 -1t91 -29t64.5 -67t23 -110q0 -39 -11.5 -72t-32 -56t-48.5 -42t-61 -30t-69.5 -20t-74.5 -12t-75.5 -6t-72.5 -2t-66 0h-30z" />
<glyph unicode="&#xc8;" horiz-adv-x="1937" d="M276 1176v-330h1133v-258h-1133v-330h1364v-258h-1624v1434h1622v-258h-1362zM469 1870h319l447 -332h-311z" />
<glyph unicode="&#xc9;" horiz-adv-x="1937" d="M276 1176v-330h1133v-258h-1133v-330h1364v-258h-1624v1434h1622v-258h-1362zM956 1870h320l-455 -332h-311z" />
<glyph unicode="&#xca;" horiz-adv-x="1937" d="M276 1176v-330h1133v-258h-1133v-330h1364v-258h-1624v1434h1622v-258h-1362zM811 1896h131l535 -360h-351l-249 193l-250 -193h-351z" />
<glyph unicode="&#xcb;" horiz-adv-x="1937" d="M276 1176v-330h1133v-258h-1133v-330h1364v-258h-1624v1434h1622v-258h-1362zM752 1536h-263v252h263v-252zM1290 1536h-262v252h262v-252z" />
<glyph unicode="&#xcc;" horiz-adv-x="620" d="M311 0h-258v1434h258v-1434zM-223 1870h319l447 -332h-312z" />
<glyph unicode="&#xcd;" horiz-adv-x="620" d="M311 0h-258v1434h258v-1434zM219 1870h320l-455 -332h-311z" />
<glyph unicode="&#xce;" horiz-adv-x="620" d="M311 0h-258v1434h258v-1434zM104 1896h132l534 -360h-350l-250 193l-250 -193h-350z" />
<glyph unicode="&#xcf;" horiz-adv-x="620" d="M311 0h-258v1434h258v-1434zM43 1536h-262v252h262v-252zM582 1536h-263v252h263v-252z" />
<glyph unicode="&#xd0;" horiz-adv-x="2304" d="M-78 588v258h281v588h989q145 0 266.5 -24t225 -78.5t174.5 -136.5t111 -203.5t40 -274.5t-40 -274.5t-111 -203.5t-174.5 -136.5t-225 -78.5t-266.5 -24h-989v588h-281zM461 1176v-330h680v-258h-680v-330h731q95 0 175.5 14.5t152 48.5t121 85.5t78 130.5t28.5 180 t-28.5 180t-78 130.5t-121 85.5t-152 48.5t-175.5 14.5h-731z" />
<glyph unicode="&#xd1;" horiz-adv-x="1898" d="M1579 0h-195l-1112 1022v-1022h-258v1434h197l1110 -1022v1022h258v-1434zM1110 1817h264q-37 -69 -88 -131.5t-125 -111t-145 -48.5q-59 0 -104.5 15t-73.5 37t-51 43.5t-48 36.5t-53 15q-24 0 -52 -29.5t-48 -62.5h-262q59 112 156.5 201.5t199.5 89.5q62 0 109 -15.5 t74.5 -37.5t49.5 -44t46 -37.5t53 -15.5q24 0 52 31.5t46 63.5z" />
<glyph unicode="&#xd2;" horiz-adv-x="2148" d="M39 717q0 153 40 274.5t111 203.5t174.5 136.5t225 78.5t266.5 24h242q145 0 266.5 -24t224.5 -78t174 -136.5t110.5 -204t39.5 -274.5t-39.5 -274.5t-110.5 -204t-174 -136.5t-224.5 -78t-266.5 -24h-242q-145 0 -266.5 24t-225 78.5t-174.5 136.5t-111 203.5t-40 274.5 zM1098 258q95 0 175.5 14.5t151.5 48.5t120 86t77.5 131t28.5 179t-28.5 179t-77.5 131t-120 86t-151.5 48.5t-175.5 14.5h-242q-95 0 -175.5 -14.5t-152 -48.5t-121 -85.5t-78 -130.5t-28.5 -180t28.5 -180t78 -130.5t121 -85.5t152 -48.5t175.5 -14.5h242zM616 1870h320 l446 -332h-311z" />
<glyph unicode="&#xd3;" horiz-adv-x="2148" d="M39 717q0 153 40 274.5t111 203.5t174.5 136.5t225 78.5t266.5 24h242q145 0 266.5 -24t224.5 -78t174 -136.5t110.5 -204t39.5 -274.5t-39.5 -274.5t-110.5 -204t-174 -136.5t-224.5 -78t-266.5 -24h-242q-145 0 -266.5 24t-225 78.5t-174.5 136.5t-111 203.5t-40 274.5 zM1098 258q95 0 175.5 14.5t151.5 48.5t120 86t77.5 131t28.5 179t-28.5 179t-77.5 131t-120 86t-151.5 48.5t-175.5 14.5h-242q-95 0 -175.5 -14.5t-152 -48.5t-121 -85.5t-78 -130.5t-28.5 -180t28.5 -180t78 -130.5t121 -85.5t152 -48.5t175.5 -14.5h242zM1063 1870h319 l-454 -332h-312z" />
<glyph unicode="&#xd4;" horiz-adv-x="2148" d="M39 717q0 153 40 274.5t111 203.5t174.5 136.5t225 78.5t266.5 24h242q145 0 266.5 -24t224.5 -78t174 -136.5t110.5 -204t39.5 -274.5t-39.5 -274.5t-110.5 -204t-174 -136.5t-224.5 -78t-266.5 -24h-242q-145 0 -266.5 24t-225 78.5t-174.5 136.5t-111 203.5t-40 274.5 zM1098 258q95 0 175.5 14.5t151.5 48.5t120 86t77.5 131t28.5 179t-28.5 179t-77.5 131t-120 86t-151.5 48.5t-175.5 14.5h-242q-95 0 -175.5 -14.5t-152 -48.5t-121 -85.5t-78 -130.5t-28.5 -180t28.5 -180t78 -130.5t121 -85.5t152 -48.5t175.5 -14.5h242zM909 1896h131 l535 -360h-350l-250 193l-250 -193h-350z" />
<glyph unicode="&#xd5;" horiz-adv-x="2148" d="M39 717q0 153 40 274.5t111 203.5t174.5 136.5t225 78.5t266.5 24h242q145 0 266.5 -24t224.5 -78t174 -136.5t110.5 -204t39.5 -274.5t-39.5 -274.5t-110.5 -204t-174 -136.5t-224.5 -78t-266.5 -24h-242q-145 0 -266.5 24t-225 78.5t-174.5 136.5t-111 203.5t-40 274.5 zM1098 258q95 0 175.5 14.5t151.5 48.5t120 86t77.5 131t28.5 179t-28.5 179t-77.5 131t-120 86t-151.5 48.5t-175.5 14.5h-242q-95 0 -175.5 -14.5t-152 -48.5t-121 -85.5t-78 -130.5t-28.5 -180t28.5 -180t78 -130.5t121 -85.5t152 -48.5t175.5 -14.5h242zM1245 1817h264 q-37 -69 -88 -131.5t-125 -111t-145 -48.5q-59 0 -104.5 15t-73.5 37t-51 43.5t-48 36.5t-53 15q-24 0 -52 -29.5t-48 -62.5h-262q59 112 156.5 201.5t199.5 89.5q62 0 109 -15.5t74.5 -37.5t49.5 -44t46 -37.5t53 -15.5q24 0 52 31.5t46 63.5z" />
<glyph unicode="&#xd6;" horiz-adv-x="2142" d="M39 717q0 153 40 274.5t111 203.5t174.5 136.5t225 78.5t266.5 24h242q145 0 266.5 -24t224.5 -78t174 -136.5t110.5 -204t39.5 -274.5t-39.5 -274.5t-110.5 -204t-174 -136.5t-224.5 -78t-266.5 -24h-242q-145 0 -266.5 24t-225 78.5t-174.5 136.5t-111 203.5t-40 274.5 zM1098 258q95 0 175.5 14.5t151.5 48.5t120 86t77.5 131t28.5 179t-28.5 179t-77.5 131t-120 86t-151.5 48.5t-175.5 14.5h-242q-95 0 -175.5 -14.5t-152 -48.5t-121 -85.5t-78 -130.5t-28.5 -180t28.5 -180t78 -130.5t121 -85.5t152 -48.5t175.5 -14.5h242zM838 1536h-263 v252h263v-252zM1376 1536h-262v252h262v-252z" />
<glyph unicode="&#xd8;" horiz-adv-x="2320" d="M582 0h-334l92 115q-301 176 -301 602q0 153 40 274.5t111 203.5t174.5 136.5t225 78.5t266.5 24h242q158 0 297 -31l26 31h334l-110 -136q268 -180 268 -581q0 -153 -39.5 -274.5t-110.5 -204t-174 -136.5t-224.5 -78t-266.5 -24h-242q-141 0 -256 23zM301 717 q0 -279 213 -391l690 843q-8 0 -46 3.5t-60 3.5h-242q-95 0 -175.5 -14.5t-152 -48.5t-121 -85.5t-78 -130.5t-28.5 -180zM1098 258q95 0 175.5 14.5t151.5 48.5t120 86t77.5 131t28.5 179q0 254 -181 368l-675 -825q20 -2 61 -2h242z" />
<glyph unicode="&#xd9;" horiz-adv-x="2326" d="M31 717v717h264v-717q0 -100 28.5 -179t78 -131t120.5 -86t151 -48.5t175 -14.5h242q119 0 216 24.5t175 76.5t121 143t43 215v717h262v-717q0 -153 -40 -274.5t-111 -203.5t-174.5 -136.5t-225 -78.5t-266.5 -24h-242q-145 0 -266.5 24t-225 78.5t-174.5 136.5 t-111 203.5t-40 274.5zM580 1870h319l447 -332h-312z" />
<glyph unicode="&#xda;" horiz-adv-x="2326" d="M31 717v717h264v-717q0 -100 28.5 -179t78 -131t120.5 -86t151 -48.5t175 -14.5h242q119 0 216 24.5t175 76.5t121 143t43 215v717h262v-717q0 -153 -40 -274.5t-111 -203.5t-174.5 -136.5t-225 -78.5t-266.5 -24h-242q-145 0 -266.5 24t-225 78.5t-174.5 136.5 t-111 203.5t-40 274.5zM1108 1870h319l-454 -332h-311z" />
<glyph unicode="&#xdb;" horiz-adv-x="2326" d="M31 717v717h264v-717q0 -100 28.5 -179t78 -131t120.5 -86t151 -48.5t175 -14.5h242q119 0 216 24.5t175 76.5t121 143t43 215v717h262v-717q0 -153 -40 -274.5t-111 -203.5t-174.5 -136.5t-225 -78.5t-266.5 -24h-242q-145 0 -266.5 24t-225 78.5t-174.5 136.5 t-111 203.5t-40 274.5zM918 1896h131l534 -360h-350l-250 193l-250 -193h-350z" />
<glyph unicode="&#xdc;" horiz-adv-x="2326" d="M31 717v717h264v-717q0 -100 28.5 -179t78 -131t120.5 -86t151 -48.5t175 -14.5h242q119 0 216 24.5t175 76.5t121 143t43 215v717h262v-717q0 -153 -40 -274.5t-111 -203.5t-174.5 -136.5t-225 -78.5t-266.5 -24h-242q-145 0 -266.5 24t-225 78.5t-174.5 136.5 t-111 203.5t-40 274.5zM862 1536h-262v252h262v-252zM1401 1536h-262v252h262v-252z" />
<glyph unicode="&#xdd;" horiz-adv-x="1982" d="M817 0v588l-856 846h369l620 -611l611 611h364l-844 -844v-590h-264zM999 1870h320l-455 -332h-311z" />
<glyph unicode="&#xde;" horiz-adv-x="2170" d="M279 0h-259v1434h259v-193h864q130 0 233 -28.5t181.5 -88t120.5 -159.5t42 -236t-42 -236t-120.5 -159.5t-181.5 -88t-233 -28.5h-864v-217zM1143 979h-864v-502h864q65 0 119.5 13.5t99 41.5t69.5 78.5t25 118.5t-25 118t-69.5 78t-99 41t-119.5 13z" />
<glyph unicode="&#xdf;" horiz-adv-x="1828" d="M336 104l170 179q146 -66 336 -66q47 0 101 3t132.5 15t138 31t103 56t43.5 86q0 14 -9 27.5t-27 25t-35 20.5t-43 17.5t-41 13t-39 11t-27 7.5h4q-35 8 -67.5 22t-63.5 34.5t-49.5 51.5t-18.5 67q0 60 46.5 100t113.5 63l-2 -2q18 6 38.5 15t45.5 22.5t41 31t16 34.5 q0 55 -55.5 93.5t-140.5 55t-150 23t-119 6.5q-52 0 -112.5 -8t-128.5 -29t-122 -51t-90 -78.5t-36 -108.5v-872h-244v872q0 84 32.5 158.5t87.5 129.5t127 99t152.5 71.5t161 41.5t156.5 14q60 0 122 -5t135 -18t138.5 -33t127.5 -53t107 -75t72 -102t27 -131 q0 -153 -150 -250q115 -48 190 -125t75 -186q0 -75 -28.5 -137t-75.5 -105.5t-112.5 -77t-134 -53.5t-146 -33t-142.5 -17.5t-129 -4.5q-288 0 -502 124z" />
<glyph unicode="&#xe0;" d="M1208 1434l1002 -1434h-318l-241 344h-1069l-246 -344h-322l1024 1434h170zM1122 1104l-356 -500h707zM727 1870h320l446 -332h-311z" />
<glyph unicode="&#xe1;" d="M1208 1434l1002 -1434h-318l-241 344h-1069l-246 -344h-322l1024 1434h170zM1122 1104l-356 -500h707zM1174 1870h319l-455 -332h-311z" />
<glyph unicode="&#xe2;" d="M1208 1434l1002 -1434h-318l-241 344h-1069l-246 -344h-322l1024 1434h170zM1122 1104l-356 -500h707zM1059 1896h131l534 -360h-350l-250 193l-250 -193h-350z" />
<glyph unicode="&#xe3;" d="M1208 1434l1002 -1434h-318l-241 344h-1069l-246 -344h-322l1024 1434h170zM1122 1104l-356 -500h707zM1391 1817h264q-26 -50 -63 -98.5t-83.5 -93t-102.5 -72t-110 -27.5q-59 0 -104.5 15t-73 37t-50.5 43.5t-48 36.5t-53 15q-24 0 -52.5 -30t-48.5 -62h-262 q26 50 63 98.5t83 93t101.5 72t109.5 27.5q62 0 109 -15.5t74 -37.5t49 -44t46 -37.5t53 -15.5q24 0 53 32t46 63z" />
<glyph unicode="&#xe4;" d="M1208 1434l1002 -1434h-318l-241 344h-1069l-246 -344h-322l1024 1434h170zM1122 1104l-356 -500h707zM989 1536h-262v252h262v-252zM1528 1536h-262v252h262v-252z" />
<glyph unicode="&#xe5;" d="M1208 1434l1002 -1434h-318l-241 344h-1069l-246 -344h-322l1024 1434h170zM1122 1104l-356 -500h707zM883 1745q0 112 63.5 168.5t175.5 56.5q116 0 182 -55t66 -170q0 -223 -242 -223q-118 0 -181.5 52.5t-63.5 170.5zM1081 1743q0 -39 41 -39q45 0 45 39t-45 39 q-41 0 -41 -39z" />
<glyph unicode="&#xe6;" horiz-adv-x="2641" d="M1196 1176v-330h924v-258h-924v-330h1153v-258h-1411v344h-430l-246 -344h-319l1022 1434h1384v-258h-1153zM690 604h248v344z" />
<glyph unicode="&#xe7;" horiz-adv-x="2131" d="M1083 1176h-239q-95 0 -175.5 -14.5t-152 -48.5t-121 -85.5t-78 -130.5t-28.5 -180t28.5 -180t78 -130.5t121 -85.5t152 -48.5t175.5 -14.5h239q110 0 205 20.5t186.5 74.5t149.5 139l248 -150q-41 -73 -95 -129t-117 -92.5t-128.5 -61t-144 -37t-148.5 -17.5t-156 -5 h-239q-145 0 -266.5 24t-225 78.5t-174.5 136.5t-111 203.5t-40 274.5t40 274.5t111 203.5t174.5 136.5t225 78.5t266.5 24h239q86 0 156 -5t148.5 -17.5t144 -37t128.5 -61t117 -92.5t95 -129l-248 -150q-58 85 -149.5 139t-186.5 74.5t-205 20.5zM774 -553v174 q20 -1 44.5 -2t66.5 -1.5t78.5 3t72 10.5t56 22t20.5 36q0 49 -215 49l-80 -2v266h209v-108q61 6 110.5 -1t91 -29t64.5 -67t23 -110q0 -39 -11.5 -72t-32 -56t-48.5 -42t-61 -30t-69.5 -20t-74.5 -12t-75.5 -6t-72.5 -2t-66 0h-30z" />
<glyph unicode="&#xe8;" horiz-adv-x="1937" d="M276 1176v-330h1133v-258h-1133v-330h1364v-258h-1624v1434h1622v-258h-1362zM469 1870h319l447 -332h-311z" />
<glyph unicode="&#xe9;" horiz-adv-x="1937" d="M276 1176v-330h1133v-258h-1133v-330h1364v-258h-1624v1434h1622v-258h-1362zM956 1870h320l-455 -332h-311z" />
<glyph unicode="&#xea;" horiz-adv-x="1937" d="M276 1176v-330h1133v-258h-1133v-330h1364v-258h-1624v1434h1622v-258h-1362zM811 1896h131l535 -360h-351l-249 193l-250 -193h-351z" />
<glyph unicode="&#xeb;" horiz-adv-x="1937" d="M276 1176v-330h1133v-258h-1133v-330h1364v-258h-1624v1434h1622v-258h-1362zM752 1536h-263v252h263v-252zM1290 1536h-262v252h262v-252z" />
<glyph unicode="&#xec;" horiz-adv-x="620" d="M311 0h-258v1434h258v-1434zM-223 1870h319l447 -332h-312z" />
<glyph unicode="&#xed;" horiz-adv-x="620" d="M311 0h-258v1434h258v-1434zM219 1870h320l-455 -332h-311z" />
<glyph unicode="&#xee;" horiz-adv-x="620" d="M311 0h-258v1434h258v-1434zM104 1896h132l534 -360h-350l-250 193l-250 -193h-350z" />
<glyph unicode="&#xef;" horiz-adv-x="620" d="M311 0h-258v1434h258v-1434zM43 1536h-262v252h262v-252zM582 1536h-263v252h263v-252z" />
<glyph unicode="&#xf0;" horiz-adv-x="2304" d="M-78 588v258h281v588h989q145 0 266.5 -24t225 -78.5t174.5 -136.5t111 -203.5t40 -274.5t-40 -274.5t-111 -203.5t-174.5 -136.5t-225 -78.5t-266.5 -24h-989v588h-281zM461 1176v-330h680v-258h-680v-330h731q95 0 175.5 14.5t152 48.5t121 85.5t78 130.5t28.5 180 t-28.5 180t-78 130.5t-121 85.5t-152 48.5t-175.5 14.5h-731z" />
<glyph unicode="&#xf1;" horiz-adv-x="1898" d="M1579 0h-195l-1112 1022v-1022h-258v1434h197l1110 -1022v1022h258v-1434zM1110 1817h264q-37 -69 -88 -131.5t-125 -111t-145 -48.5q-59 0 -104.5 15t-73.5 37t-51 43.5t-48 36.5t-53 15q-24 0 -52 -29.5t-48 -62.5h-262q59 112 156.5 201.5t199.5 89.5q62 0 109 -15.5 t74.5 -37.5t49.5 -44t46 -37.5t53 -15.5q24 0 52 31.5t46 63.5z" />
<glyph unicode="&#xf2;" horiz-adv-x="2148" d="M39 717q0 153 40 274.5t111 203.5t174.5 136.5t225 78.5t266.5 24h242q145 0 266.5 -24t224.5 -78t174 -136.5t110.5 -204t39.5 -274.5t-39.5 -274.5t-110.5 -204t-174 -136.5t-224.5 -78t-266.5 -24h-242q-145 0 -266.5 24t-225 78.5t-174.5 136.5t-111 203.5t-40 274.5 zM1098 258q95 0 175.5 14.5t151.5 48.5t120 86t77.5 131t28.5 179t-28.5 179t-77.5 131t-120 86t-151.5 48.5t-175.5 14.5h-242q-95 0 -175.5 -14.5t-152 -48.5t-121 -85.5t-78 -130.5t-28.5 -180t28.5 -180t78 -130.5t121 -85.5t152 -48.5t175.5 -14.5h242zM616 1870h320 l446 -332h-311z" />
<glyph unicode="&#xf3;" horiz-adv-x="2148" d="M39 717q0 153 40 274.5t111 203.5t174.5 136.5t225 78.5t266.5 24h242q145 0 266.5 -24t224.5 -78t174 -136.5t110.5 -204t39.5 -274.5t-39.5 -274.5t-110.5 -204t-174 -136.5t-224.5 -78t-266.5 -24h-242q-145 0 -266.5 24t-225 78.5t-174.5 136.5t-111 203.5t-40 274.5 zM1098 258q95 0 175.5 14.5t151.5 48.5t120 86t77.5 131t28.5 179t-28.5 179t-77.5 131t-120 86t-151.5 48.5t-175.5 14.5h-242q-95 0 -175.5 -14.5t-152 -48.5t-121 -85.5t-78 -130.5t-28.5 -180t28.5 -180t78 -130.5t121 -85.5t152 -48.5t175.5 -14.5h242zM1063 1870h319 l-454 -332h-312z" />
<glyph unicode="&#xf4;" horiz-adv-x="2148" d="M39 717q0 153 40 274.5t111 203.5t174.5 136.5t225 78.5t266.5 24h242q145 0 266.5 -24t224.5 -78t174 -136.5t110.5 -204t39.5 -274.5t-39.5 -274.5t-110.5 -204t-174 -136.5t-224.5 -78t-266.5 -24h-242q-145 0 -266.5 24t-225 78.5t-174.5 136.5t-111 203.5t-40 274.5 zM1098 258q95 0 175.5 14.5t151.5 48.5t120 86t77.5 131t28.5 179t-28.5 179t-77.5 131t-120 86t-151.5 48.5t-175.5 14.5h-242q-95 0 -175.5 -14.5t-152 -48.5t-121 -85.5t-78 -130.5t-28.5 -180t28.5 -180t78 -130.5t121 -85.5t152 -48.5t175.5 -14.5h242zM909 1896h131 l535 -360h-350l-250 193l-250 -193h-350z" />
<glyph unicode="&#xf5;" horiz-adv-x="2148" d="M39 717q0 153 40 274.5t111 203.5t174.5 136.5t225 78.5t266.5 24h242q145 0 266.5 -24t224.5 -78t174 -136.5t110.5 -204t39.5 -274.5t-39.5 -274.5t-110.5 -204t-174 -136.5t-224.5 -78t-266.5 -24h-242q-145 0 -266.5 24t-225 78.5t-174.5 136.5t-111 203.5t-40 274.5 zM1098 258q95 0 175.5 14.5t151.5 48.5t120 86t77.5 131t28.5 179t-28.5 179t-77.5 131t-120 86t-151.5 48.5t-175.5 14.5h-242q-95 0 -175.5 -14.5t-152 -48.5t-121 -85.5t-78 -130.5t-28.5 -180t28.5 -180t78 -130.5t121 -85.5t152 -48.5t175.5 -14.5h242zM1245 1817h264 q-37 -69 -88 -131.5t-125 -111t-145 -48.5q-59 0 -104.5 15t-73.5 37t-51 43.5t-48 36.5t-53 15q-24 0 -52 -29.5t-48 -62.5h-262q59 112 156.5 201.5t199.5 89.5q62 0 109 -15.5t74.5 -37.5t49.5 -44t46 -37.5t53 -15.5q24 0 52 31.5t46 63.5z" />
<glyph unicode="&#xf6;" horiz-adv-x="2142" d="M39 717q0 153 40 274.5t111 203.5t174.5 136.5t225 78.5t266.5 24h242q145 0 266.5 -24t224.5 -78t174 -136.5t110.5 -204t39.5 -274.5t-39.5 -274.5t-110.5 -204t-174 -136.5t-224.5 -78t-266.5 -24h-242q-145 0 -266.5 24t-225 78.5t-174.5 136.5t-111 203.5t-40 274.5 zM1098 258q95 0 175.5 14.5t151.5 48.5t120 86t77.5 131t28.5 179t-28.5 179t-77.5 131t-120 86t-151.5 48.5t-175.5 14.5h-242q-95 0 -175.5 -14.5t-152 -48.5t-121 -85.5t-78 -130.5t-28.5 -180t28.5 -180t78 -130.5t121 -85.5t152 -48.5t175.5 -14.5h242zM838 1536h-263 v252h263v-252zM1376 1536h-262v252h262v-252z" />
<glyph unicode="&#xf8;" horiz-adv-x="2320" d="M582 0h-334l92 115q-301 176 -301 602q0 153 40 274.5t111 203.5t174.5 136.5t225 78.5t266.5 24h242q158 0 297 -31l26 31h334l-110 -136q268 -180 268 -581q0 -153 -39.5 -274.5t-110.5 -204t-174 -136.5t-224.5 -78t-266.5 -24h-242q-141 0 -256 23zM301 717 q0 -279 213 -391l690 843q-8 0 -46 3.5t-60 3.5h-242q-95 0 -175.5 -14.5t-152 -48.5t-121 -85.5t-78 -130.5t-28.5 -180zM1098 258q95 0 175.5 14.5t151.5 48.5t120 86t77.5 131t28.5 179q0 254 -181 368l-675 -825q20 -2 61 -2h242z" />
<glyph unicode="&#xf9;" horiz-adv-x="2326" d="M31 717v717h264v-717q0 -100 28.5 -179t78 -131t120.5 -86t151 -48.5t175 -14.5h242q119 0 216 24.5t175 76.5t121 143t43 215v717h262v-717q0 -153 -40 -274.5t-111 -203.5t-174.5 -136.5t-225 -78.5t-266.5 -24h-242q-145 0 -266.5 24t-225 78.5t-174.5 136.5 t-111 203.5t-40 274.5zM580 1870h319l447 -332h-312z" />
<glyph unicode="&#xfa;" horiz-adv-x="2326" d="M31 717v717h264v-717q0 -100 28.5 -179t78 -131t120.5 -86t151 -48.5t175 -14.5h242q119 0 216 24.5t175 76.5t121 143t43 215v717h262v-717q0 -153 -40 -274.5t-111 -203.5t-174.5 -136.5t-225 -78.5t-266.5 -24h-242q-145 0 -266.5 24t-225 78.5t-174.5 136.5 t-111 203.5t-40 274.5zM1108 1870h319l-454 -332h-311z" />
<glyph unicode="&#xfb;" horiz-adv-x="2326" d="M31 717v717h264v-717q0 -100 28.5 -179t78 -131t120.5 -86t151 -48.5t175 -14.5h242q119 0 216 24.5t175 76.5t121 143t43 215v717h262v-717q0 -153 -40 -274.5t-111 -203.5t-174.5 -136.5t-225 -78.5t-266.5 -24h-242q-145 0 -266.5 24t-225 78.5t-174.5 136.5 t-111 203.5t-40 274.5zM918 1896h131l534 -360h-350l-250 193l-250 -193h-350z" />
<glyph unicode="&#xfc;" horiz-adv-x="2326" d="M31 717v717h264v-717q0 -100 28.5 -179t78 -131t120.5 -86t151 -48.5t175 -14.5h242q119 0 216 24.5t175 76.5t121 143t43 215v717h262v-717q0 -153 -40 -274.5t-111 -203.5t-174.5 -136.5t-225 -78.5t-266.5 -24h-242q-145 0 -266.5 24t-225 78.5t-174.5 136.5 t-111 203.5t-40 274.5zM842 1536h-262v252h262v-252zM1380 1536h-262v252h262v-252z" />
<glyph unicode="&#xfd;" horiz-adv-x="1982" d="M817 0v588l-856 846h369l620 -611l611 611h364l-844 -844v-590h-264zM999 1870h320l-455 -332h-311z" />
<glyph unicode="&#xfe;" horiz-adv-x="2170" d="M291 0h-244v1354h244v-180h817q122 0 219.5 -27.5t171.5 -84.5t114 -152t40 -222q0 -128 -40 -222.5t-114 -150.5t-171.5 -83t-219.5 -27h-817v-205zM1108 926h-817v-475h817q61 0 112.5 12.5t93.5 39.5t65.5 74t23.5 111t-23.5 111.5t-65.5 74.5t-93 39.5t-113 12.5z " />
<glyph unicode="&#xff;" horiz-adv-x="1982" d="M817 0v588l-856 846h369l620 -611l611 611h364l-844 -844v-590h-264zM797 1536h-262v252h262v-252zM1335 1536h-262v252h262v-252z" />
<glyph unicode="&#x141;" d="M258 45h-350l571 617v772h258v-494l207 223h350l-557 -602v-303h1256v-258h-1514v283z" />
<glyph unicode="&#x142;" d="M258 45h-350l571 617v772h258v-494l207 223h350l-557 -602v-303h1256v-258h-1514v283z" />
<glyph unicode="&#x152;" horiz-adv-x="2971" d="M1434 1176v-330h923v-258h-923v-330h1155v-258h-1706q-145 0 -266.5 24t-224.5 78t-174 136.5t-110.5 204t-39.5 274.5t39.5 274.5t110.5 204t174 136.5t224.5 78t266.5 24h1704v-258h-1153zM330 717q0 -100 28.5 -179t77.5 -131t120 -86t151.5 -48.5t175.5 -14.5h293 v918h-293q-95 0 -175.5 -14.5t-151.5 -48.5t-120 -86t-77.5 -131t-28.5 -179z" />
<glyph unicode="&#x153;" horiz-adv-x="3108" d="M1397 1110v-311h870v-244h-870v-311h1089v-244h-1609q-137 0 -252 23t-212.5 74t-165 128.5t-105.5 192.5t-38 260q0 146 38 260.5t105.5 192t165 128t212.5 73t252 22.5h1607v-244h-1087zM352 678q0 -118 40.5 -204.5t114 -135.5t165 -71.5t205.5 -22.5h274v866h-274 q-114 0 -205.5 -22.5t-165 -71t-114 -134.5t-40.5 -204z" />
<glyph unicode="&#x160;" horiz-adv-x="2197" d="M33 350l233 148q40 -62 99 -107.5t121 -71t141 -40t144 -19t144 -4.5q623 0 623 154q0 44 -48 75t-128.5 49t-185.5 31.5t-220.5 27.5t-231.5 32t-221 49.5t-185.5 75t-128.5 113.5t-48 161q0 78 38 142.5t103 108t143 75.5t164.5 50t161 26t140.5 8q75 0 128.5 -1.5 t128.5 -6t132 -15t125 -27t121.5 -43t106.5 -62t96 -85.5t75 -111l-217 -145q-34 63 -91.5 109t-118 70.5t-140.5 39t-142.5 18t-140.5 3.5q-38 0 -72.5 -1t-97.5 -5t-113 -14.5t-100 -26.5t-78 -43.5t-28 -63.5q0 -31 17 -55t59 -42t78 -29.5t111.5 -22.5t119.5 -16 t140 -14q89 -9 135.5 -14t132.5 -16.5t134.5 -22t121 -30t115 -40.5t92.5 -52.5t76.5 -68.5t44.5 -85.5t18 -105.5q0 -92 -62.5 -166t-154.5 -118t-207 -74t-211.5 -41t-175.5 -11q-280 0 -404 13q-367 38 -533 223q-46 51 -79 114zM1053 1536h-131l-535 360h350l250 -192 l250 192h350z" />
<glyph unicode="&#x161;" horiz-adv-x="2197" d="M33 350l233 148q40 -62 99 -107.5t121 -71t141 -40t144 -19t144 -4.5q623 0 623 154q0 44 -48 75t-128.5 49t-185.5 31.5t-220.5 27.5t-231.5 32t-221 49.5t-185.5 75t-128.5 113.5t-48 161q0 78 38 142.5t103 108t143 75.5t164.5 50t161 26t140.5 8q75 0 128.5 -1.5 t128.5 -6t132 -15t125 -27t121.5 -43t106.5 -62t96 -85.5t75 -111l-217 -145q-34 63 -91.5 109t-118 70.5t-140.5 39t-142.5 18t-140.5 3.5q-38 0 -72.5 -1t-97.5 -5t-113 -14.5t-100 -26.5t-78 -43.5t-28 -63.5q0 -31 17 -55t59 -42t78 -29.5t111.5 -22.5t119.5 -16 t140 -14q89 -9 135.5 -14t132.5 -16.5t134.5 -22t121 -30t115 -40.5t92.5 -52.5t76.5 -68.5t44.5 -85.5t18 -105.5q0 -92 -62.5 -166t-154.5 -118t-207 -74t-211.5 -41t-175.5 -11q-280 0 -404 13q-367 38 -533 223q-46 51 -79 114zM1053 1536h-131l-535 360h350l250 -192 l250 192h350z" />
<glyph unicode="&#x178;" horiz-adv-x="1982" d="M817 0v588l-856 846h369l620 -611l611 611h364l-844 -844v-590h-264zM797 1536h-262v252h262v-252zM1335 1536h-262v252h262v-252z" />
<glyph unicode="&#x17d;" horiz-adv-x="1918" d="M86 1176v258h1434v-199l-1051 -977h1122v-258h-1575v199l1055 977h-985zM889 1536h-131l-535 360h350l250 -192l250 192h350z" />
<glyph unicode="&#x17e;" horiz-adv-x="1918" d="M86 1176v258h1434v-199l-1051 -977h1122v-258h-1575v199l1055 977h-985zM889 1536h-131l-535 360h350l250 -192l250 192h350z" />
<glyph unicode="&#x2c6;" horiz-adv-x="1054" d="M389 1896h131l535 -360h-350l-250 193l-250 -193h-350z" />
<glyph unicode="&#x2c7;" horiz-adv-x="1054" d="M500 1536h-131l-535 360h350l250 -192l250 192h350z" />
<glyph unicode="&#x2d8;" horiz-adv-x="874" d="M403 1536q-79 0 -146 29t-116.5 82.5t-85 112t-67.5 134.5h293q20 -47 53.5 -92t68.5 -45t69.5 45.5t53.5 91.5h293q-50 -152 -158.5 -255t-257.5 -103z" />
<glyph unicode="&#x2d9;" horiz-adv-x="432" d="M176 1419q-86 0 -135 42.5t-49 127.5q0 176 186 176q86 0 135 -45t49 -131q0 -85 -50 -127.5t-136 -42.5z" />
<glyph unicode="&#x2da;" horiz-adv-x="489" d="M-31 1745q0 112 64 168.5t176 56.5q116 0 182 -55t66 -170q0 -223 -242 -223q-246 0 -246 223zM168 1743q0 -39 41 -39q45 0 45 39t-45 39q-41 0 -41 -39z" />
<glyph unicode="&#x2dc;" horiz-adv-x="1114" d="M780 1817h264q-37 -69 -88 -131.5t-125 -111t-145 -48.5q-59 0 -104.5 15t-73.5 37t-51 43.5t-48 36.5t-53 15q-24 0 -52 -29.5t-48 -62.5h-262q59 112 156.5 201.5t199.5 89.5q62 0 109 -15.5t74.5 -37.5t49.5 -44t46 -37.5t53 -15.5q24 0 52 31.5t46 63.5z" />
<glyph unicode="&#x2000;" horiz-adv-x="985" />
<glyph unicode="&#x2001;" horiz-adv-x="1970" />
<glyph unicode="&#x2002;" horiz-adv-x="985" />
<glyph unicode="&#x2003;" horiz-adv-x="1970" />
<glyph unicode="&#x2004;" horiz-adv-x="656" />
<glyph unicode="&#x2005;" horiz-adv-x="492" />
<glyph unicode="&#x2006;" horiz-adv-x="328" />
<glyph unicode="&#x2007;" horiz-adv-x="328" />
<glyph unicode="&#x2008;" horiz-adv-x="246" />
<glyph unicode="&#x2009;" horiz-adv-x="394" />
<glyph unicode="&#x200a;" horiz-adv-x="109" />
<glyph unicode="&#x2010;" horiz-adv-x="1486" d="M0 588v258h1221v-258h-1221z" />
<glyph unicode="&#x2011;" horiz-adv-x="1486" d="M0 588v258h1221v-258h-1221z" />
<glyph unicode="&#x2012;" horiz-adv-x="1486" d="M0 588v258h1221v-258h-1221z" />
<glyph unicode="&#x2013;" horiz-adv-x="1689" d="M0 588v258h1221v-258h-1221z" />
<glyph unicode="&#x2014;" horiz-adv-x="2123" d="M18 588v258h1639v-258h-1639z" />
<glyph unicode="&#x2018;" horiz-adv-x="442" d="M129 1436h197l-66 -152v-252h-262v252z" />
<glyph unicode="&#x2019;" horiz-adv-x="419" d="M133 1032h-196l65 152v252h262v-252z" />
<glyph unicode="&#x201a;" horiz-adv-x="407" d="M203 -195h-152q-2 7 -15 55.5t-25.5 94.5t-12.5 49v225h266v-231q0 -2 -14.5 -46.5t-29.5 -92t-17 -54.5z" />
<glyph unicode="&#x201c;" horiz-adv-x="899" d="M473 1436h197l-66 -152v-252h-262v252zM63 1436h197l-65 -152v-252h-263v252z" />
<glyph unicode="&#x201d;" horiz-adv-x="950" d="M129 1032h-197l66 152v252h262v-252zM539 1032h-197l66 152v252h262v-252z" />
<glyph unicode="&#x201e;" horiz-adv-x="733" d="M203 -195h-152q-2 7 -15 55.5t-25.5 94.5t-12.5 49v225h266v-231q0 -2 -14.5 -46.5t-29.5 -92t-17 -54.5zM612 -195h-151q-2 7 -15 55.5t-25.5 94.5t-12.5 49v225h266v-231q0 -2 -14.5 -46.5t-30 -92t-17.5 -54.5z" />
<glyph unicode="&#x2020;" horiz-adv-x="1423" d="M35 588v258h483v708h254v-708h481v-258h-481v-678h-254v678h-483z" />
<glyph unicode="&#x2021;" horiz-adv-x="1423" d="M35 780v258h483v516h254v-516h481v-258h-481v-127h481v-258h-481v-485h-254v485h-483v258h483v127h-483z" />
<glyph unicode="&#x2022;" horiz-adv-x="489" d="M190 549q-85 0 -131.5 42.5t-46.5 127.5t47.5 126.5t133.5 41.5q84 0 131 -42t47 -126q0 -85 -47.5 -127.5t-133.5 -42.5z" />
<glyph unicode="&#x2026;" horiz-adv-x="1392" d="M262 0h-262v252h262v-252zM713 0h-262v252h262v-252zM1163 0h-262v252h262v-252z" />
<glyph unicode="&#x202f;" horiz-adv-x="394" />
<glyph unicode="&#x2039;" horiz-adv-x="827" d="M-23 717l443 543h334l-443 -541q255 -313 443 -545h-334z" />
<glyph unicode="&#x203a;" horiz-adv-x="827" d="M299 1260l444 -543l-444 -543h-334l445 541l-445 545h334z" />
<glyph unicode="&#x2044;" horiz-adv-x="1423" d="M225 350h-334l1172 1434h334z" />
<glyph unicode="&#x205f;" horiz-adv-x="492" />
<glyph unicode="&#x20ac;" horiz-adv-x="1792" d="M-39 801v237h225q164 396 758 396q140 0 247.5 -12.5t215.5 -49.5v-246q-164 70 -326 70q-62 0 -91 -0.5t-89 -3t-94.5 -8t-87 -17t-88.5 -28t-77 -42.5t-73 -59h877v-237h-926q0 -3 -3 -35t-3 -49q0 -13 1 -27t2.5 -30.5t2.5 -26.5h926v-238h-877q85 -77 211 -117 t252 -40q284 0 461 47v-244q-185 -41 -324 -41q-71 0 -119 1t-117 5t-118 11.5t-111.5 21.5t-108 33.5t-96.5 49.5t-89.5 68.5t-74 90t-61.5 114.5h-225v238h209q-13 119 0 168h-209z" />
<glyph unicode="&#x2122;" horiz-adv-x="2072" d="M588 696h-258v482h-310v256h879v-256h-311v-482zM1282 686h-256v748h207l225 -377l225 377h207v-748h-260v299l-108 -299h-127l-113 299v-299z" />
<glyph unicode="&#xe000;" horiz-adv-x="1433" d="M0 1434h1434v-1434h-1434v1434z" />
<glyph unicode="&#xfb01;" horiz-adv-x="2072" d="M276 1176v-330h1133v-258h-1133v-588h-260v1434h1839v-1434h-258v1176h-1321z" />
<glyph unicode="&#xfb02;" horiz-adv-x="3506" d="M297 1176v-330h1133v-258h-1133v-588h-260v1434h1872v-1176h1255v-258h-1513v1176h-1354z" />
</font>
</defs>
</svg>
